G75*
%MOIN*%
%OFA0B0*%
%FSLAX25Y25*%
%IPPOS*%
%LPD*%
%AMOC8*
5,1,8,0,0,1.08239X$1,22.5*
%
%ADD10C,0.00000*%
%ADD11C,0.07400*%
%ADD12OC8,0.04800*%
%ADD13C,0.06500*%
%ADD14C,0.05600*%
%ADD15R,0.05600X0.05600*%
%ADD16OC8,0.06600*%
%ADD17OC8,0.06300*%
%ADD18C,0.06300*%
%ADD19C,0.04800*%
%ADD20OC8,0.07000*%
%ADD21R,0.07400X0.07400*%
%ADD22C,0.07000*%
%ADD23C,0.07500*%
%ADD24C,0.10000*%
%ADD25C,0.08858*%
%ADD26C,0.06600*%
%ADD27C,0.01600*%
%ADD28C,0.00600*%
%ADD29C,0.02700*%
%ADD30C,0.01000*%
D10*
X0001800Y0001800D02*
X0001800Y0321761D01*
X0315501Y0321761D01*
X0315501Y0001800D01*
X0001800Y0001800D01*
X0005501Y0011800D02*
X0005503Y0011958D01*
X0005509Y0012116D01*
X0005519Y0012274D01*
X0005533Y0012432D01*
X0005551Y0012589D01*
X0005572Y0012746D01*
X0005598Y0012902D01*
X0005628Y0013058D01*
X0005661Y0013213D01*
X0005699Y0013366D01*
X0005740Y0013519D01*
X0005785Y0013671D01*
X0005834Y0013822D01*
X0005887Y0013971D01*
X0005943Y0014119D01*
X0006003Y0014265D01*
X0006067Y0014410D01*
X0006135Y0014553D01*
X0006206Y0014695D01*
X0006280Y0014835D01*
X0006358Y0014972D01*
X0006440Y0015108D01*
X0006524Y0015242D01*
X0006613Y0015373D01*
X0006704Y0015502D01*
X0006799Y0015629D01*
X0006896Y0015754D01*
X0006997Y0015876D01*
X0007101Y0015995D01*
X0007208Y0016112D01*
X0007318Y0016226D01*
X0007431Y0016337D01*
X0007546Y0016446D01*
X0007664Y0016551D01*
X0007785Y0016653D01*
X0007908Y0016753D01*
X0008034Y0016849D01*
X0008162Y0016942D01*
X0008292Y0017032D01*
X0008425Y0017118D01*
X0008560Y0017202D01*
X0008696Y0017281D01*
X0008835Y0017358D01*
X0008976Y0017430D01*
X0009118Y0017500D01*
X0009262Y0017565D01*
X0009408Y0017627D01*
X0009555Y0017685D01*
X0009704Y0017740D01*
X0009854Y0017791D01*
X0010005Y0017838D01*
X0010157Y0017881D01*
X0010310Y0017920D01*
X0010465Y0017956D01*
X0010620Y0017987D01*
X0010776Y0018015D01*
X0010932Y0018039D01*
X0011089Y0018059D01*
X0011247Y0018075D01*
X0011404Y0018087D01*
X0011563Y0018095D01*
X0011721Y0018099D01*
X0011879Y0018099D01*
X0012037Y0018095D01*
X0012196Y0018087D01*
X0012353Y0018075D01*
X0012511Y0018059D01*
X0012668Y0018039D01*
X0012824Y0018015D01*
X0012980Y0017987D01*
X0013135Y0017956D01*
X0013290Y0017920D01*
X0013443Y0017881D01*
X0013595Y0017838D01*
X0013746Y0017791D01*
X0013896Y0017740D01*
X0014045Y0017685D01*
X0014192Y0017627D01*
X0014338Y0017565D01*
X0014482Y0017500D01*
X0014624Y0017430D01*
X0014765Y0017358D01*
X0014904Y0017281D01*
X0015040Y0017202D01*
X0015175Y0017118D01*
X0015308Y0017032D01*
X0015438Y0016942D01*
X0015566Y0016849D01*
X0015692Y0016753D01*
X0015815Y0016653D01*
X0015936Y0016551D01*
X0016054Y0016446D01*
X0016169Y0016337D01*
X0016282Y0016226D01*
X0016392Y0016112D01*
X0016499Y0015995D01*
X0016603Y0015876D01*
X0016704Y0015754D01*
X0016801Y0015629D01*
X0016896Y0015502D01*
X0016987Y0015373D01*
X0017076Y0015242D01*
X0017160Y0015108D01*
X0017242Y0014972D01*
X0017320Y0014835D01*
X0017394Y0014695D01*
X0017465Y0014553D01*
X0017533Y0014410D01*
X0017597Y0014265D01*
X0017657Y0014119D01*
X0017713Y0013971D01*
X0017766Y0013822D01*
X0017815Y0013671D01*
X0017860Y0013519D01*
X0017901Y0013366D01*
X0017939Y0013213D01*
X0017972Y0013058D01*
X0018002Y0012902D01*
X0018028Y0012746D01*
X0018049Y0012589D01*
X0018067Y0012432D01*
X0018081Y0012274D01*
X0018091Y0012116D01*
X0018097Y0011958D01*
X0018099Y0011800D01*
X0018097Y0011642D01*
X0018091Y0011484D01*
X0018081Y0011326D01*
X0018067Y0011168D01*
X0018049Y0011011D01*
X0018028Y0010854D01*
X0018002Y0010698D01*
X0017972Y0010542D01*
X0017939Y0010387D01*
X0017901Y0010234D01*
X0017860Y0010081D01*
X0017815Y0009929D01*
X0017766Y0009778D01*
X0017713Y0009629D01*
X0017657Y0009481D01*
X0017597Y0009335D01*
X0017533Y0009190D01*
X0017465Y0009047D01*
X0017394Y0008905D01*
X0017320Y0008765D01*
X0017242Y0008628D01*
X0017160Y0008492D01*
X0017076Y0008358D01*
X0016987Y0008227D01*
X0016896Y0008098D01*
X0016801Y0007971D01*
X0016704Y0007846D01*
X0016603Y0007724D01*
X0016499Y0007605D01*
X0016392Y0007488D01*
X0016282Y0007374D01*
X0016169Y0007263D01*
X0016054Y0007154D01*
X0015936Y0007049D01*
X0015815Y0006947D01*
X0015692Y0006847D01*
X0015566Y0006751D01*
X0015438Y0006658D01*
X0015308Y0006568D01*
X0015175Y0006482D01*
X0015040Y0006398D01*
X0014904Y0006319D01*
X0014765Y0006242D01*
X0014624Y0006170D01*
X0014482Y0006100D01*
X0014338Y0006035D01*
X0014192Y0005973D01*
X0014045Y0005915D01*
X0013896Y0005860D01*
X0013746Y0005809D01*
X0013595Y0005762D01*
X0013443Y0005719D01*
X0013290Y0005680D01*
X0013135Y0005644D01*
X0012980Y0005613D01*
X0012824Y0005585D01*
X0012668Y0005561D01*
X0012511Y0005541D01*
X0012353Y0005525D01*
X0012196Y0005513D01*
X0012037Y0005505D01*
X0011879Y0005501D01*
X0011721Y0005501D01*
X0011563Y0005505D01*
X0011404Y0005513D01*
X0011247Y0005525D01*
X0011089Y0005541D01*
X0010932Y0005561D01*
X0010776Y0005585D01*
X0010620Y0005613D01*
X0010465Y0005644D01*
X0010310Y0005680D01*
X0010157Y0005719D01*
X0010005Y0005762D01*
X0009854Y0005809D01*
X0009704Y0005860D01*
X0009555Y0005915D01*
X0009408Y0005973D01*
X0009262Y0006035D01*
X0009118Y0006100D01*
X0008976Y0006170D01*
X0008835Y0006242D01*
X0008696Y0006319D01*
X0008560Y0006398D01*
X0008425Y0006482D01*
X0008292Y0006568D01*
X0008162Y0006658D01*
X0008034Y0006751D01*
X0007908Y0006847D01*
X0007785Y0006947D01*
X0007664Y0007049D01*
X0007546Y0007154D01*
X0007431Y0007263D01*
X0007318Y0007374D01*
X0007208Y0007488D01*
X0007101Y0007605D01*
X0006997Y0007724D01*
X0006896Y0007846D01*
X0006799Y0007971D01*
X0006704Y0008098D01*
X0006613Y0008227D01*
X0006524Y0008358D01*
X0006440Y0008492D01*
X0006358Y0008628D01*
X0006280Y0008765D01*
X0006206Y0008905D01*
X0006135Y0009047D01*
X0006067Y0009190D01*
X0006003Y0009335D01*
X0005943Y0009481D01*
X0005887Y0009629D01*
X0005834Y0009778D01*
X0005785Y0009929D01*
X0005740Y0010081D01*
X0005699Y0010234D01*
X0005661Y0010387D01*
X0005628Y0010542D01*
X0005598Y0010698D01*
X0005572Y0010854D01*
X0005551Y0011011D01*
X0005533Y0011168D01*
X0005519Y0011326D01*
X0005509Y0011484D01*
X0005503Y0011642D01*
X0005501Y0011800D01*
X0266032Y0252194D02*
X0266034Y0252302D01*
X0266040Y0252411D01*
X0266050Y0252519D01*
X0266064Y0252626D01*
X0266082Y0252733D01*
X0266103Y0252840D01*
X0266129Y0252945D01*
X0266159Y0253050D01*
X0266192Y0253153D01*
X0266229Y0253255D01*
X0266270Y0253355D01*
X0266314Y0253454D01*
X0266363Y0253552D01*
X0266414Y0253647D01*
X0266469Y0253740D01*
X0266528Y0253832D01*
X0266590Y0253921D01*
X0266655Y0254008D01*
X0266723Y0254092D01*
X0266794Y0254174D01*
X0266868Y0254253D01*
X0266945Y0254329D01*
X0267025Y0254403D01*
X0267108Y0254473D01*
X0267193Y0254541D01*
X0267280Y0254605D01*
X0267370Y0254666D01*
X0267462Y0254724D01*
X0267556Y0254778D01*
X0267652Y0254829D01*
X0267749Y0254876D01*
X0267849Y0254920D01*
X0267950Y0254960D01*
X0268052Y0254996D01*
X0268155Y0255028D01*
X0268260Y0255057D01*
X0268366Y0255081D01*
X0268472Y0255102D01*
X0268579Y0255119D01*
X0268687Y0255132D01*
X0268795Y0255141D01*
X0268904Y0255146D01*
X0269012Y0255147D01*
X0269121Y0255144D01*
X0269229Y0255137D01*
X0269337Y0255126D01*
X0269444Y0255111D01*
X0269551Y0255092D01*
X0269657Y0255069D01*
X0269762Y0255043D01*
X0269867Y0255012D01*
X0269969Y0254978D01*
X0270071Y0254940D01*
X0270171Y0254898D01*
X0270270Y0254853D01*
X0270367Y0254804D01*
X0270461Y0254751D01*
X0270554Y0254695D01*
X0270645Y0254636D01*
X0270734Y0254573D01*
X0270820Y0254508D01*
X0270904Y0254439D01*
X0270985Y0254367D01*
X0271063Y0254292D01*
X0271139Y0254214D01*
X0271212Y0254133D01*
X0271282Y0254050D01*
X0271348Y0253965D01*
X0271412Y0253877D01*
X0271472Y0253786D01*
X0271529Y0253694D01*
X0271582Y0253599D01*
X0271632Y0253503D01*
X0271678Y0253405D01*
X0271721Y0253305D01*
X0271760Y0253204D01*
X0271795Y0253101D01*
X0271827Y0252998D01*
X0271854Y0252893D01*
X0271878Y0252787D01*
X0271898Y0252680D01*
X0271914Y0252573D01*
X0271926Y0252465D01*
X0271934Y0252357D01*
X0271938Y0252248D01*
X0271938Y0252140D01*
X0271934Y0252031D01*
X0271926Y0251923D01*
X0271914Y0251815D01*
X0271898Y0251708D01*
X0271878Y0251601D01*
X0271854Y0251495D01*
X0271827Y0251390D01*
X0271795Y0251287D01*
X0271760Y0251184D01*
X0271721Y0251083D01*
X0271678Y0250983D01*
X0271632Y0250885D01*
X0271582Y0250789D01*
X0271529Y0250694D01*
X0271472Y0250602D01*
X0271412Y0250511D01*
X0271348Y0250423D01*
X0271282Y0250338D01*
X0271212Y0250255D01*
X0271139Y0250174D01*
X0271063Y0250096D01*
X0270985Y0250021D01*
X0270904Y0249949D01*
X0270820Y0249880D01*
X0270734Y0249815D01*
X0270645Y0249752D01*
X0270554Y0249693D01*
X0270462Y0249637D01*
X0270367Y0249584D01*
X0270270Y0249535D01*
X0270171Y0249490D01*
X0270071Y0249448D01*
X0269969Y0249410D01*
X0269867Y0249376D01*
X0269762Y0249345D01*
X0269657Y0249319D01*
X0269551Y0249296D01*
X0269444Y0249277D01*
X0269337Y0249262D01*
X0269229Y0249251D01*
X0269121Y0249244D01*
X0269012Y0249241D01*
X0268904Y0249242D01*
X0268795Y0249247D01*
X0268687Y0249256D01*
X0268579Y0249269D01*
X0268472Y0249286D01*
X0268366Y0249307D01*
X0268260Y0249331D01*
X0268155Y0249360D01*
X0268052Y0249392D01*
X0267950Y0249428D01*
X0267849Y0249468D01*
X0267749Y0249512D01*
X0267652Y0249559D01*
X0267556Y0249610D01*
X0267462Y0249664D01*
X0267370Y0249722D01*
X0267280Y0249783D01*
X0267193Y0249847D01*
X0267108Y0249915D01*
X0267025Y0249985D01*
X0266945Y0250059D01*
X0266868Y0250135D01*
X0266794Y0250214D01*
X0266723Y0250296D01*
X0266655Y0250380D01*
X0266590Y0250467D01*
X0266528Y0250556D01*
X0266469Y0250648D01*
X0266414Y0250741D01*
X0266363Y0250836D01*
X0266314Y0250934D01*
X0266270Y0251033D01*
X0266229Y0251133D01*
X0266192Y0251235D01*
X0266159Y0251338D01*
X0266129Y0251443D01*
X0266103Y0251548D01*
X0266082Y0251655D01*
X0266064Y0251762D01*
X0266050Y0251869D01*
X0266040Y0251977D01*
X0266034Y0252086D01*
X0266032Y0252194D01*
X0285717Y0271879D02*
X0285719Y0271987D01*
X0285725Y0272096D01*
X0285735Y0272204D01*
X0285749Y0272311D01*
X0285767Y0272418D01*
X0285788Y0272525D01*
X0285814Y0272630D01*
X0285844Y0272735D01*
X0285877Y0272838D01*
X0285914Y0272940D01*
X0285955Y0273040D01*
X0285999Y0273139D01*
X0286048Y0273237D01*
X0286099Y0273332D01*
X0286154Y0273425D01*
X0286213Y0273517D01*
X0286275Y0273606D01*
X0286340Y0273693D01*
X0286408Y0273777D01*
X0286479Y0273859D01*
X0286553Y0273938D01*
X0286630Y0274014D01*
X0286710Y0274088D01*
X0286793Y0274158D01*
X0286878Y0274226D01*
X0286965Y0274290D01*
X0287055Y0274351D01*
X0287147Y0274409D01*
X0287241Y0274463D01*
X0287337Y0274514D01*
X0287434Y0274561D01*
X0287534Y0274605D01*
X0287635Y0274645D01*
X0287737Y0274681D01*
X0287840Y0274713D01*
X0287945Y0274742D01*
X0288051Y0274766D01*
X0288157Y0274787D01*
X0288264Y0274804D01*
X0288372Y0274817D01*
X0288480Y0274826D01*
X0288589Y0274831D01*
X0288697Y0274832D01*
X0288806Y0274829D01*
X0288914Y0274822D01*
X0289022Y0274811D01*
X0289129Y0274796D01*
X0289236Y0274777D01*
X0289342Y0274754D01*
X0289447Y0274728D01*
X0289552Y0274697D01*
X0289654Y0274663D01*
X0289756Y0274625D01*
X0289856Y0274583D01*
X0289955Y0274538D01*
X0290052Y0274489D01*
X0290146Y0274436D01*
X0290239Y0274380D01*
X0290330Y0274321D01*
X0290419Y0274258D01*
X0290505Y0274193D01*
X0290589Y0274124D01*
X0290670Y0274052D01*
X0290748Y0273977D01*
X0290824Y0273899D01*
X0290897Y0273818D01*
X0290967Y0273735D01*
X0291033Y0273650D01*
X0291097Y0273562D01*
X0291157Y0273471D01*
X0291214Y0273379D01*
X0291267Y0273284D01*
X0291317Y0273188D01*
X0291363Y0273090D01*
X0291406Y0272990D01*
X0291445Y0272889D01*
X0291480Y0272786D01*
X0291512Y0272683D01*
X0291539Y0272578D01*
X0291563Y0272472D01*
X0291583Y0272365D01*
X0291599Y0272258D01*
X0291611Y0272150D01*
X0291619Y0272042D01*
X0291623Y0271933D01*
X0291623Y0271825D01*
X0291619Y0271716D01*
X0291611Y0271608D01*
X0291599Y0271500D01*
X0291583Y0271393D01*
X0291563Y0271286D01*
X0291539Y0271180D01*
X0291512Y0271075D01*
X0291480Y0270972D01*
X0291445Y0270869D01*
X0291406Y0270768D01*
X0291363Y0270668D01*
X0291317Y0270570D01*
X0291267Y0270474D01*
X0291214Y0270379D01*
X0291157Y0270287D01*
X0291097Y0270196D01*
X0291033Y0270108D01*
X0290967Y0270023D01*
X0290897Y0269940D01*
X0290824Y0269859D01*
X0290748Y0269781D01*
X0290670Y0269706D01*
X0290589Y0269634D01*
X0290505Y0269565D01*
X0290419Y0269500D01*
X0290330Y0269437D01*
X0290239Y0269378D01*
X0290147Y0269322D01*
X0290052Y0269269D01*
X0289955Y0269220D01*
X0289856Y0269175D01*
X0289756Y0269133D01*
X0289654Y0269095D01*
X0289552Y0269061D01*
X0289447Y0269030D01*
X0289342Y0269004D01*
X0289236Y0268981D01*
X0289129Y0268962D01*
X0289022Y0268947D01*
X0288914Y0268936D01*
X0288806Y0268929D01*
X0288697Y0268926D01*
X0288589Y0268927D01*
X0288480Y0268932D01*
X0288372Y0268941D01*
X0288264Y0268954D01*
X0288157Y0268971D01*
X0288051Y0268992D01*
X0287945Y0269016D01*
X0287840Y0269045D01*
X0287737Y0269077D01*
X0287635Y0269113D01*
X0287534Y0269153D01*
X0287434Y0269197D01*
X0287337Y0269244D01*
X0287241Y0269295D01*
X0287147Y0269349D01*
X0287055Y0269407D01*
X0286965Y0269468D01*
X0286878Y0269532D01*
X0286793Y0269600D01*
X0286710Y0269670D01*
X0286630Y0269744D01*
X0286553Y0269820D01*
X0286479Y0269899D01*
X0286408Y0269981D01*
X0286340Y0270065D01*
X0286275Y0270152D01*
X0286213Y0270241D01*
X0286154Y0270333D01*
X0286099Y0270426D01*
X0286048Y0270521D01*
X0285999Y0270619D01*
X0285955Y0270718D01*
X0285914Y0270818D01*
X0285877Y0270920D01*
X0285844Y0271023D01*
X0285814Y0271128D01*
X0285788Y0271233D01*
X0285767Y0271340D01*
X0285749Y0271447D01*
X0285735Y0271554D01*
X0285725Y0271662D01*
X0285719Y0271771D01*
X0285717Y0271879D01*
X0285717Y0232509D02*
X0285719Y0232617D01*
X0285725Y0232726D01*
X0285735Y0232834D01*
X0285749Y0232941D01*
X0285767Y0233048D01*
X0285788Y0233155D01*
X0285814Y0233260D01*
X0285844Y0233365D01*
X0285877Y0233468D01*
X0285914Y0233570D01*
X0285955Y0233670D01*
X0285999Y0233769D01*
X0286048Y0233867D01*
X0286099Y0233962D01*
X0286154Y0234055D01*
X0286213Y0234147D01*
X0286275Y0234236D01*
X0286340Y0234323D01*
X0286408Y0234407D01*
X0286479Y0234489D01*
X0286553Y0234568D01*
X0286630Y0234644D01*
X0286710Y0234718D01*
X0286793Y0234788D01*
X0286878Y0234856D01*
X0286965Y0234920D01*
X0287055Y0234981D01*
X0287147Y0235039D01*
X0287241Y0235093D01*
X0287337Y0235144D01*
X0287434Y0235191D01*
X0287534Y0235235D01*
X0287635Y0235275D01*
X0287737Y0235311D01*
X0287840Y0235343D01*
X0287945Y0235372D01*
X0288051Y0235396D01*
X0288157Y0235417D01*
X0288264Y0235434D01*
X0288372Y0235447D01*
X0288480Y0235456D01*
X0288589Y0235461D01*
X0288697Y0235462D01*
X0288806Y0235459D01*
X0288914Y0235452D01*
X0289022Y0235441D01*
X0289129Y0235426D01*
X0289236Y0235407D01*
X0289342Y0235384D01*
X0289447Y0235358D01*
X0289552Y0235327D01*
X0289654Y0235293D01*
X0289756Y0235255D01*
X0289856Y0235213D01*
X0289955Y0235168D01*
X0290052Y0235119D01*
X0290146Y0235066D01*
X0290239Y0235010D01*
X0290330Y0234951D01*
X0290419Y0234888D01*
X0290505Y0234823D01*
X0290589Y0234754D01*
X0290670Y0234682D01*
X0290748Y0234607D01*
X0290824Y0234529D01*
X0290897Y0234448D01*
X0290967Y0234365D01*
X0291033Y0234280D01*
X0291097Y0234192D01*
X0291157Y0234101D01*
X0291214Y0234009D01*
X0291267Y0233914D01*
X0291317Y0233818D01*
X0291363Y0233720D01*
X0291406Y0233620D01*
X0291445Y0233519D01*
X0291480Y0233416D01*
X0291512Y0233313D01*
X0291539Y0233208D01*
X0291563Y0233102D01*
X0291583Y0232995D01*
X0291599Y0232888D01*
X0291611Y0232780D01*
X0291619Y0232672D01*
X0291623Y0232563D01*
X0291623Y0232455D01*
X0291619Y0232346D01*
X0291611Y0232238D01*
X0291599Y0232130D01*
X0291583Y0232023D01*
X0291563Y0231916D01*
X0291539Y0231810D01*
X0291512Y0231705D01*
X0291480Y0231602D01*
X0291445Y0231499D01*
X0291406Y0231398D01*
X0291363Y0231298D01*
X0291317Y0231200D01*
X0291267Y0231104D01*
X0291214Y0231009D01*
X0291157Y0230917D01*
X0291097Y0230826D01*
X0291033Y0230738D01*
X0290967Y0230653D01*
X0290897Y0230570D01*
X0290824Y0230489D01*
X0290748Y0230411D01*
X0290670Y0230336D01*
X0290589Y0230264D01*
X0290505Y0230195D01*
X0290419Y0230130D01*
X0290330Y0230067D01*
X0290239Y0230008D01*
X0290147Y0229952D01*
X0290052Y0229899D01*
X0289955Y0229850D01*
X0289856Y0229805D01*
X0289756Y0229763D01*
X0289654Y0229725D01*
X0289552Y0229691D01*
X0289447Y0229660D01*
X0289342Y0229634D01*
X0289236Y0229611D01*
X0289129Y0229592D01*
X0289022Y0229577D01*
X0288914Y0229566D01*
X0288806Y0229559D01*
X0288697Y0229556D01*
X0288589Y0229557D01*
X0288480Y0229562D01*
X0288372Y0229571D01*
X0288264Y0229584D01*
X0288157Y0229601D01*
X0288051Y0229622D01*
X0287945Y0229646D01*
X0287840Y0229675D01*
X0287737Y0229707D01*
X0287635Y0229743D01*
X0287534Y0229783D01*
X0287434Y0229827D01*
X0287337Y0229874D01*
X0287241Y0229925D01*
X0287147Y0229979D01*
X0287055Y0230037D01*
X0286965Y0230098D01*
X0286878Y0230162D01*
X0286793Y0230230D01*
X0286710Y0230300D01*
X0286630Y0230374D01*
X0286553Y0230450D01*
X0286479Y0230529D01*
X0286408Y0230611D01*
X0286340Y0230695D01*
X0286275Y0230782D01*
X0286213Y0230871D01*
X0286154Y0230963D01*
X0286099Y0231056D01*
X0286048Y0231151D01*
X0285999Y0231249D01*
X0285955Y0231348D01*
X0285914Y0231448D01*
X0285877Y0231550D01*
X0285844Y0231653D01*
X0285814Y0231758D01*
X0285788Y0231863D01*
X0285767Y0231970D01*
X0285749Y0232077D01*
X0285735Y0232184D01*
X0285725Y0232292D01*
X0285719Y0232401D01*
X0285717Y0232509D01*
X0300501Y0311800D02*
X0300503Y0311958D01*
X0300509Y0312116D01*
X0300519Y0312274D01*
X0300533Y0312432D01*
X0300551Y0312589D01*
X0300572Y0312746D01*
X0300598Y0312902D01*
X0300628Y0313058D01*
X0300661Y0313213D01*
X0300699Y0313366D01*
X0300740Y0313519D01*
X0300785Y0313671D01*
X0300834Y0313822D01*
X0300887Y0313971D01*
X0300943Y0314119D01*
X0301003Y0314265D01*
X0301067Y0314410D01*
X0301135Y0314553D01*
X0301206Y0314695D01*
X0301280Y0314835D01*
X0301358Y0314972D01*
X0301440Y0315108D01*
X0301524Y0315242D01*
X0301613Y0315373D01*
X0301704Y0315502D01*
X0301799Y0315629D01*
X0301896Y0315754D01*
X0301997Y0315876D01*
X0302101Y0315995D01*
X0302208Y0316112D01*
X0302318Y0316226D01*
X0302431Y0316337D01*
X0302546Y0316446D01*
X0302664Y0316551D01*
X0302785Y0316653D01*
X0302908Y0316753D01*
X0303034Y0316849D01*
X0303162Y0316942D01*
X0303292Y0317032D01*
X0303425Y0317118D01*
X0303560Y0317202D01*
X0303696Y0317281D01*
X0303835Y0317358D01*
X0303976Y0317430D01*
X0304118Y0317500D01*
X0304262Y0317565D01*
X0304408Y0317627D01*
X0304555Y0317685D01*
X0304704Y0317740D01*
X0304854Y0317791D01*
X0305005Y0317838D01*
X0305157Y0317881D01*
X0305310Y0317920D01*
X0305465Y0317956D01*
X0305620Y0317987D01*
X0305776Y0318015D01*
X0305932Y0318039D01*
X0306089Y0318059D01*
X0306247Y0318075D01*
X0306404Y0318087D01*
X0306563Y0318095D01*
X0306721Y0318099D01*
X0306879Y0318099D01*
X0307037Y0318095D01*
X0307196Y0318087D01*
X0307353Y0318075D01*
X0307511Y0318059D01*
X0307668Y0318039D01*
X0307824Y0318015D01*
X0307980Y0317987D01*
X0308135Y0317956D01*
X0308290Y0317920D01*
X0308443Y0317881D01*
X0308595Y0317838D01*
X0308746Y0317791D01*
X0308896Y0317740D01*
X0309045Y0317685D01*
X0309192Y0317627D01*
X0309338Y0317565D01*
X0309482Y0317500D01*
X0309624Y0317430D01*
X0309765Y0317358D01*
X0309904Y0317281D01*
X0310040Y0317202D01*
X0310175Y0317118D01*
X0310308Y0317032D01*
X0310438Y0316942D01*
X0310566Y0316849D01*
X0310692Y0316753D01*
X0310815Y0316653D01*
X0310936Y0316551D01*
X0311054Y0316446D01*
X0311169Y0316337D01*
X0311282Y0316226D01*
X0311392Y0316112D01*
X0311499Y0315995D01*
X0311603Y0315876D01*
X0311704Y0315754D01*
X0311801Y0315629D01*
X0311896Y0315502D01*
X0311987Y0315373D01*
X0312076Y0315242D01*
X0312160Y0315108D01*
X0312242Y0314972D01*
X0312320Y0314835D01*
X0312394Y0314695D01*
X0312465Y0314553D01*
X0312533Y0314410D01*
X0312597Y0314265D01*
X0312657Y0314119D01*
X0312713Y0313971D01*
X0312766Y0313822D01*
X0312815Y0313671D01*
X0312860Y0313519D01*
X0312901Y0313366D01*
X0312939Y0313213D01*
X0312972Y0313058D01*
X0313002Y0312902D01*
X0313028Y0312746D01*
X0313049Y0312589D01*
X0313067Y0312432D01*
X0313081Y0312274D01*
X0313091Y0312116D01*
X0313097Y0311958D01*
X0313099Y0311800D01*
X0313097Y0311642D01*
X0313091Y0311484D01*
X0313081Y0311326D01*
X0313067Y0311168D01*
X0313049Y0311011D01*
X0313028Y0310854D01*
X0313002Y0310698D01*
X0312972Y0310542D01*
X0312939Y0310387D01*
X0312901Y0310234D01*
X0312860Y0310081D01*
X0312815Y0309929D01*
X0312766Y0309778D01*
X0312713Y0309629D01*
X0312657Y0309481D01*
X0312597Y0309335D01*
X0312533Y0309190D01*
X0312465Y0309047D01*
X0312394Y0308905D01*
X0312320Y0308765D01*
X0312242Y0308628D01*
X0312160Y0308492D01*
X0312076Y0308358D01*
X0311987Y0308227D01*
X0311896Y0308098D01*
X0311801Y0307971D01*
X0311704Y0307846D01*
X0311603Y0307724D01*
X0311499Y0307605D01*
X0311392Y0307488D01*
X0311282Y0307374D01*
X0311169Y0307263D01*
X0311054Y0307154D01*
X0310936Y0307049D01*
X0310815Y0306947D01*
X0310692Y0306847D01*
X0310566Y0306751D01*
X0310438Y0306658D01*
X0310308Y0306568D01*
X0310175Y0306482D01*
X0310040Y0306398D01*
X0309904Y0306319D01*
X0309765Y0306242D01*
X0309624Y0306170D01*
X0309482Y0306100D01*
X0309338Y0306035D01*
X0309192Y0305973D01*
X0309045Y0305915D01*
X0308896Y0305860D01*
X0308746Y0305809D01*
X0308595Y0305762D01*
X0308443Y0305719D01*
X0308290Y0305680D01*
X0308135Y0305644D01*
X0307980Y0305613D01*
X0307824Y0305585D01*
X0307668Y0305561D01*
X0307511Y0305541D01*
X0307353Y0305525D01*
X0307196Y0305513D01*
X0307037Y0305505D01*
X0306879Y0305501D01*
X0306721Y0305501D01*
X0306563Y0305505D01*
X0306404Y0305513D01*
X0306247Y0305525D01*
X0306089Y0305541D01*
X0305932Y0305561D01*
X0305776Y0305585D01*
X0305620Y0305613D01*
X0305465Y0305644D01*
X0305310Y0305680D01*
X0305157Y0305719D01*
X0305005Y0305762D01*
X0304854Y0305809D01*
X0304704Y0305860D01*
X0304555Y0305915D01*
X0304408Y0305973D01*
X0304262Y0306035D01*
X0304118Y0306100D01*
X0303976Y0306170D01*
X0303835Y0306242D01*
X0303696Y0306319D01*
X0303560Y0306398D01*
X0303425Y0306482D01*
X0303292Y0306568D01*
X0303162Y0306658D01*
X0303034Y0306751D01*
X0302908Y0306847D01*
X0302785Y0306947D01*
X0302664Y0307049D01*
X0302546Y0307154D01*
X0302431Y0307263D01*
X0302318Y0307374D01*
X0302208Y0307488D01*
X0302101Y0307605D01*
X0301997Y0307724D01*
X0301896Y0307846D01*
X0301799Y0307971D01*
X0301704Y0308098D01*
X0301613Y0308227D01*
X0301524Y0308358D01*
X0301440Y0308492D01*
X0301358Y0308628D01*
X0301280Y0308765D01*
X0301206Y0308905D01*
X0301135Y0309047D01*
X0301067Y0309190D01*
X0301003Y0309335D01*
X0300943Y0309481D01*
X0300887Y0309629D01*
X0300834Y0309778D01*
X0300785Y0309929D01*
X0300740Y0310081D01*
X0300699Y0310234D01*
X0300661Y0310387D01*
X0300628Y0310542D01*
X0300598Y0310698D01*
X0300572Y0310854D01*
X0300551Y0311011D01*
X0300533Y0311168D01*
X0300519Y0311326D01*
X0300509Y0311484D01*
X0300503Y0311642D01*
X0300501Y0311800D01*
X0005501Y0311800D02*
X0005503Y0311958D01*
X0005509Y0312116D01*
X0005519Y0312274D01*
X0005533Y0312432D01*
X0005551Y0312589D01*
X0005572Y0312746D01*
X0005598Y0312902D01*
X0005628Y0313058D01*
X0005661Y0313213D01*
X0005699Y0313366D01*
X0005740Y0313519D01*
X0005785Y0313671D01*
X0005834Y0313822D01*
X0005887Y0313971D01*
X0005943Y0314119D01*
X0006003Y0314265D01*
X0006067Y0314410D01*
X0006135Y0314553D01*
X0006206Y0314695D01*
X0006280Y0314835D01*
X0006358Y0314972D01*
X0006440Y0315108D01*
X0006524Y0315242D01*
X0006613Y0315373D01*
X0006704Y0315502D01*
X0006799Y0315629D01*
X0006896Y0315754D01*
X0006997Y0315876D01*
X0007101Y0315995D01*
X0007208Y0316112D01*
X0007318Y0316226D01*
X0007431Y0316337D01*
X0007546Y0316446D01*
X0007664Y0316551D01*
X0007785Y0316653D01*
X0007908Y0316753D01*
X0008034Y0316849D01*
X0008162Y0316942D01*
X0008292Y0317032D01*
X0008425Y0317118D01*
X0008560Y0317202D01*
X0008696Y0317281D01*
X0008835Y0317358D01*
X0008976Y0317430D01*
X0009118Y0317500D01*
X0009262Y0317565D01*
X0009408Y0317627D01*
X0009555Y0317685D01*
X0009704Y0317740D01*
X0009854Y0317791D01*
X0010005Y0317838D01*
X0010157Y0317881D01*
X0010310Y0317920D01*
X0010465Y0317956D01*
X0010620Y0317987D01*
X0010776Y0318015D01*
X0010932Y0318039D01*
X0011089Y0318059D01*
X0011247Y0318075D01*
X0011404Y0318087D01*
X0011563Y0318095D01*
X0011721Y0318099D01*
X0011879Y0318099D01*
X0012037Y0318095D01*
X0012196Y0318087D01*
X0012353Y0318075D01*
X0012511Y0318059D01*
X0012668Y0318039D01*
X0012824Y0318015D01*
X0012980Y0317987D01*
X0013135Y0317956D01*
X0013290Y0317920D01*
X0013443Y0317881D01*
X0013595Y0317838D01*
X0013746Y0317791D01*
X0013896Y0317740D01*
X0014045Y0317685D01*
X0014192Y0317627D01*
X0014338Y0317565D01*
X0014482Y0317500D01*
X0014624Y0317430D01*
X0014765Y0317358D01*
X0014904Y0317281D01*
X0015040Y0317202D01*
X0015175Y0317118D01*
X0015308Y0317032D01*
X0015438Y0316942D01*
X0015566Y0316849D01*
X0015692Y0316753D01*
X0015815Y0316653D01*
X0015936Y0316551D01*
X0016054Y0316446D01*
X0016169Y0316337D01*
X0016282Y0316226D01*
X0016392Y0316112D01*
X0016499Y0315995D01*
X0016603Y0315876D01*
X0016704Y0315754D01*
X0016801Y0315629D01*
X0016896Y0315502D01*
X0016987Y0315373D01*
X0017076Y0315242D01*
X0017160Y0315108D01*
X0017242Y0314972D01*
X0017320Y0314835D01*
X0017394Y0314695D01*
X0017465Y0314553D01*
X0017533Y0314410D01*
X0017597Y0314265D01*
X0017657Y0314119D01*
X0017713Y0313971D01*
X0017766Y0313822D01*
X0017815Y0313671D01*
X0017860Y0313519D01*
X0017901Y0313366D01*
X0017939Y0313213D01*
X0017972Y0313058D01*
X0018002Y0312902D01*
X0018028Y0312746D01*
X0018049Y0312589D01*
X0018067Y0312432D01*
X0018081Y0312274D01*
X0018091Y0312116D01*
X0018097Y0311958D01*
X0018099Y0311800D01*
X0018097Y0311642D01*
X0018091Y0311484D01*
X0018081Y0311326D01*
X0018067Y0311168D01*
X0018049Y0311011D01*
X0018028Y0310854D01*
X0018002Y0310698D01*
X0017972Y0310542D01*
X0017939Y0310387D01*
X0017901Y0310234D01*
X0017860Y0310081D01*
X0017815Y0309929D01*
X0017766Y0309778D01*
X0017713Y0309629D01*
X0017657Y0309481D01*
X0017597Y0309335D01*
X0017533Y0309190D01*
X0017465Y0309047D01*
X0017394Y0308905D01*
X0017320Y0308765D01*
X0017242Y0308628D01*
X0017160Y0308492D01*
X0017076Y0308358D01*
X0016987Y0308227D01*
X0016896Y0308098D01*
X0016801Y0307971D01*
X0016704Y0307846D01*
X0016603Y0307724D01*
X0016499Y0307605D01*
X0016392Y0307488D01*
X0016282Y0307374D01*
X0016169Y0307263D01*
X0016054Y0307154D01*
X0015936Y0307049D01*
X0015815Y0306947D01*
X0015692Y0306847D01*
X0015566Y0306751D01*
X0015438Y0306658D01*
X0015308Y0306568D01*
X0015175Y0306482D01*
X0015040Y0306398D01*
X0014904Y0306319D01*
X0014765Y0306242D01*
X0014624Y0306170D01*
X0014482Y0306100D01*
X0014338Y0306035D01*
X0014192Y0305973D01*
X0014045Y0305915D01*
X0013896Y0305860D01*
X0013746Y0305809D01*
X0013595Y0305762D01*
X0013443Y0305719D01*
X0013290Y0305680D01*
X0013135Y0305644D01*
X0012980Y0305613D01*
X0012824Y0305585D01*
X0012668Y0305561D01*
X0012511Y0305541D01*
X0012353Y0305525D01*
X0012196Y0305513D01*
X0012037Y0305505D01*
X0011879Y0305501D01*
X0011721Y0305501D01*
X0011563Y0305505D01*
X0011404Y0305513D01*
X0011247Y0305525D01*
X0011089Y0305541D01*
X0010932Y0305561D01*
X0010776Y0305585D01*
X0010620Y0305613D01*
X0010465Y0305644D01*
X0010310Y0305680D01*
X0010157Y0305719D01*
X0010005Y0305762D01*
X0009854Y0305809D01*
X0009704Y0305860D01*
X0009555Y0305915D01*
X0009408Y0305973D01*
X0009262Y0306035D01*
X0009118Y0306100D01*
X0008976Y0306170D01*
X0008835Y0306242D01*
X0008696Y0306319D01*
X0008560Y0306398D01*
X0008425Y0306482D01*
X0008292Y0306568D01*
X0008162Y0306658D01*
X0008034Y0306751D01*
X0007908Y0306847D01*
X0007785Y0306947D01*
X0007664Y0307049D01*
X0007546Y0307154D01*
X0007431Y0307263D01*
X0007318Y0307374D01*
X0007208Y0307488D01*
X0007101Y0307605D01*
X0006997Y0307724D01*
X0006896Y0307846D01*
X0006799Y0307971D01*
X0006704Y0308098D01*
X0006613Y0308227D01*
X0006524Y0308358D01*
X0006440Y0308492D01*
X0006358Y0308628D01*
X0006280Y0308765D01*
X0006206Y0308905D01*
X0006135Y0309047D01*
X0006067Y0309190D01*
X0006003Y0309335D01*
X0005943Y0309481D01*
X0005887Y0309629D01*
X0005834Y0309778D01*
X0005785Y0309929D01*
X0005740Y0310081D01*
X0005699Y0310234D01*
X0005661Y0310387D01*
X0005628Y0310542D01*
X0005598Y0310698D01*
X0005572Y0310854D01*
X0005551Y0311011D01*
X0005533Y0311168D01*
X0005519Y0311326D01*
X0005509Y0311484D01*
X0005503Y0311642D01*
X0005501Y0311800D01*
X0300501Y0011800D02*
X0300503Y0011958D01*
X0300509Y0012116D01*
X0300519Y0012274D01*
X0300533Y0012432D01*
X0300551Y0012589D01*
X0300572Y0012746D01*
X0300598Y0012902D01*
X0300628Y0013058D01*
X0300661Y0013213D01*
X0300699Y0013366D01*
X0300740Y0013519D01*
X0300785Y0013671D01*
X0300834Y0013822D01*
X0300887Y0013971D01*
X0300943Y0014119D01*
X0301003Y0014265D01*
X0301067Y0014410D01*
X0301135Y0014553D01*
X0301206Y0014695D01*
X0301280Y0014835D01*
X0301358Y0014972D01*
X0301440Y0015108D01*
X0301524Y0015242D01*
X0301613Y0015373D01*
X0301704Y0015502D01*
X0301799Y0015629D01*
X0301896Y0015754D01*
X0301997Y0015876D01*
X0302101Y0015995D01*
X0302208Y0016112D01*
X0302318Y0016226D01*
X0302431Y0016337D01*
X0302546Y0016446D01*
X0302664Y0016551D01*
X0302785Y0016653D01*
X0302908Y0016753D01*
X0303034Y0016849D01*
X0303162Y0016942D01*
X0303292Y0017032D01*
X0303425Y0017118D01*
X0303560Y0017202D01*
X0303696Y0017281D01*
X0303835Y0017358D01*
X0303976Y0017430D01*
X0304118Y0017500D01*
X0304262Y0017565D01*
X0304408Y0017627D01*
X0304555Y0017685D01*
X0304704Y0017740D01*
X0304854Y0017791D01*
X0305005Y0017838D01*
X0305157Y0017881D01*
X0305310Y0017920D01*
X0305465Y0017956D01*
X0305620Y0017987D01*
X0305776Y0018015D01*
X0305932Y0018039D01*
X0306089Y0018059D01*
X0306247Y0018075D01*
X0306404Y0018087D01*
X0306563Y0018095D01*
X0306721Y0018099D01*
X0306879Y0018099D01*
X0307037Y0018095D01*
X0307196Y0018087D01*
X0307353Y0018075D01*
X0307511Y0018059D01*
X0307668Y0018039D01*
X0307824Y0018015D01*
X0307980Y0017987D01*
X0308135Y0017956D01*
X0308290Y0017920D01*
X0308443Y0017881D01*
X0308595Y0017838D01*
X0308746Y0017791D01*
X0308896Y0017740D01*
X0309045Y0017685D01*
X0309192Y0017627D01*
X0309338Y0017565D01*
X0309482Y0017500D01*
X0309624Y0017430D01*
X0309765Y0017358D01*
X0309904Y0017281D01*
X0310040Y0017202D01*
X0310175Y0017118D01*
X0310308Y0017032D01*
X0310438Y0016942D01*
X0310566Y0016849D01*
X0310692Y0016753D01*
X0310815Y0016653D01*
X0310936Y0016551D01*
X0311054Y0016446D01*
X0311169Y0016337D01*
X0311282Y0016226D01*
X0311392Y0016112D01*
X0311499Y0015995D01*
X0311603Y0015876D01*
X0311704Y0015754D01*
X0311801Y0015629D01*
X0311896Y0015502D01*
X0311987Y0015373D01*
X0312076Y0015242D01*
X0312160Y0015108D01*
X0312242Y0014972D01*
X0312320Y0014835D01*
X0312394Y0014695D01*
X0312465Y0014553D01*
X0312533Y0014410D01*
X0312597Y0014265D01*
X0312657Y0014119D01*
X0312713Y0013971D01*
X0312766Y0013822D01*
X0312815Y0013671D01*
X0312860Y0013519D01*
X0312901Y0013366D01*
X0312939Y0013213D01*
X0312972Y0013058D01*
X0313002Y0012902D01*
X0313028Y0012746D01*
X0313049Y0012589D01*
X0313067Y0012432D01*
X0313081Y0012274D01*
X0313091Y0012116D01*
X0313097Y0011958D01*
X0313099Y0011800D01*
X0313097Y0011642D01*
X0313091Y0011484D01*
X0313081Y0011326D01*
X0313067Y0011168D01*
X0313049Y0011011D01*
X0313028Y0010854D01*
X0313002Y0010698D01*
X0312972Y0010542D01*
X0312939Y0010387D01*
X0312901Y0010234D01*
X0312860Y0010081D01*
X0312815Y0009929D01*
X0312766Y0009778D01*
X0312713Y0009629D01*
X0312657Y0009481D01*
X0312597Y0009335D01*
X0312533Y0009190D01*
X0312465Y0009047D01*
X0312394Y0008905D01*
X0312320Y0008765D01*
X0312242Y0008628D01*
X0312160Y0008492D01*
X0312076Y0008358D01*
X0311987Y0008227D01*
X0311896Y0008098D01*
X0311801Y0007971D01*
X0311704Y0007846D01*
X0311603Y0007724D01*
X0311499Y0007605D01*
X0311392Y0007488D01*
X0311282Y0007374D01*
X0311169Y0007263D01*
X0311054Y0007154D01*
X0310936Y0007049D01*
X0310815Y0006947D01*
X0310692Y0006847D01*
X0310566Y0006751D01*
X0310438Y0006658D01*
X0310308Y0006568D01*
X0310175Y0006482D01*
X0310040Y0006398D01*
X0309904Y0006319D01*
X0309765Y0006242D01*
X0309624Y0006170D01*
X0309482Y0006100D01*
X0309338Y0006035D01*
X0309192Y0005973D01*
X0309045Y0005915D01*
X0308896Y0005860D01*
X0308746Y0005809D01*
X0308595Y0005762D01*
X0308443Y0005719D01*
X0308290Y0005680D01*
X0308135Y0005644D01*
X0307980Y0005613D01*
X0307824Y0005585D01*
X0307668Y0005561D01*
X0307511Y0005541D01*
X0307353Y0005525D01*
X0307196Y0005513D01*
X0307037Y0005505D01*
X0306879Y0005501D01*
X0306721Y0005501D01*
X0306563Y0005505D01*
X0306404Y0005513D01*
X0306247Y0005525D01*
X0306089Y0005541D01*
X0305932Y0005561D01*
X0305776Y0005585D01*
X0305620Y0005613D01*
X0305465Y0005644D01*
X0305310Y0005680D01*
X0305157Y0005719D01*
X0305005Y0005762D01*
X0304854Y0005809D01*
X0304704Y0005860D01*
X0304555Y0005915D01*
X0304408Y0005973D01*
X0304262Y0006035D01*
X0304118Y0006100D01*
X0303976Y0006170D01*
X0303835Y0006242D01*
X0303696Y0006319D01*
X0303560Y0006398D01*
X0303425Y0006482D01*
X0303292Y0006568D01*
X0303162Y0006658D01*
X0303034Y0006751D01*
X0302908Y0006847D01*
X0302785Y0006947D01*
X0302664Y0007049D01*
X0302546Y0007154D01*
X0302431Y0007263D01*
X0302318Y0007374D01*
X0302208Y0007488D01*
X0302101Y0007605D01*
X0301997Y0007724D01*
X0301896Y0007846D01*
X0301799Y0007971D01*
X0301704Y0008098D01*
X0301613Y0008227D01*
X0301524Y0008358D01*
X0301440Y0008492D01*
X0301358Y0008628D01*
X0301280Y0008765D01*
X0301206Y0008905D01*
X0301135Y0009047D01*
X0301067Y0009190D01*
X0301003Y0009335D01*
X0300943Y0009481D01*
X0300887Y0009629D01*
X0300834Y0009778D01*
X0300785Y0009929D01*
X0300740Y0010081D01*
X0300699Y0010234D01*
X0300661Y0010387D01*
X0300628Y0010542D01*
X0300598Y0010698D01*
X0300572Y0010854D01*
X0300551Y0011011D01*
X0300533Y0011168D01*
X0300519Y0011326D01*
X0300509Y0011484D01*
X0300503Y0011642D01*
X0300501Y0011800D01*
D11*
X0151800Y0046800D03*
X0151800Y0056800D03*
X0151800Y0066800D03*
X0151800Y0076800D03*
X0151800Y0086800D03*
X0151800Y0096800D03*
X0151800Y0106800D03*
X0151800Y0116800D03*
X0151800Y0126800D03*
X0151800Y0136800D03*
X0151800Y0146800D03*
X0091800Y0146800D03*
X0091800Y0136800D03*
X0091800Y0126800D03*
X0091800Y0116800D03*
X0091800Y0106800D03*
X0091800Y0096800D03*
X0091800Y0086800D03*
X0091800Y0076800D03*
X0091800Y0066800D03*
X0091800Y0056800D03*
X0091800Y0046800D03*
X0091800Y0036800D03*
X0051800Y0016800D03*
X0041800Y0016800D03*
X0031800Y0016800D03*
X0031800Y0131800D03*
X0031800Y0141800D03*
D12*
X0046800Y0116800D03*
X0039300Y0111800D03*
X0046800Y0106800D03*
D13*
X0041800Y0091800D03*
X0051800Y0091800D03*
X0051800Y0131800D03*
X0051800Y0141800D03*
D14*
X0198493Y0140580D03*
X0198493Y0132706D03*
X0198493Y0124831D03*
X0198493Y0116957D03*
X0198493Y0109083D03*
X0198493Y0101209D03*
X0198493Y0093335D03*
X0198493Y0085461D03*
X0198493Y0077587D03*
X0285107Y0077587D03*
X0285107Y0085461D03*
X0285107Y0093335D03*
X0285107Y0101209D03*
X0285107Y0109083D03*
X0285107Y0116957D03*
X0285107Y0124831D03*
X0285107Y0132706D03*
X0285107Y0140580D03*
X0285107Y0148454D03*
D15*
X0198493Y0148454D03*
D16*
X0221800Y0151800D03*
X0221800Y0161800D03*
X0221800Y0171800D03*
X0201800Y0171800D03*
X0191800Y0171800D03*
X0261800Y0171800D03*
X0261800Y0161800D03*
X0261800Y0151800D03*
X0281800Y0171800D03*
X0291800Y0171800D03*
X0201800Y0060300D03*
X0201800Y0051800D03*
X0201800Y0043300D03*
X0236800Y0051800D03*
X0246800Y0051800D03*
D17*
X0286800Y0046800D03*
D18*
X0286800Y0056800D03*
D19*
X0259200Y0076800D02*
X0254400Y0076800D01*
X0254400Y0086800D02*
X0259200Y0086800D01*
X0259200Y0096800D02*
X0254400Y0096800D01*
X0254400Y0106800D02*
X0259200Y0106800D01*
X0259200Y0116800D02*
X0254400Y0116800D01*
X0254400Y0126800D02*
X0259200Y0126800D01*
X0259200Y0136800D02*
X0254400Y0136800D01*
X0229200Y0136800D02*
X0224400Y0136800D01*
X0224400Y0126800D02*
X0229200Y0126800D01*
X0229200Y0116800D02*
X0224400Y0116800D01*
X0224400Y0106800D02*
X0229200Y0106800D01*
X0229200Y0096800D02*
X0224400Y0096800D01*
X0224400Y0086800D02*
X0229200Y0086800D01*
X0229200Y0076800D02*
X0224400Y0076800D01*
D20*
X0211800Y0071800D03*
X0211800Y0081800D03*
X0211800Y0091800D03*
X0211800Y0101800D03*
X0211800Y0111800D03*
X0211800Y0121800D03*
X0211800Y0131800D03*
X0211800Y0141800D03*
X0211800Y0151800D03*
X0211800Y0161800D03*
X0271800Y0161800D03*
X0271800Y0151800D03*
X0271800Y0141800D03*
X0271800Y0131800D03*
X0271800Y0121800D03*
X0271800Y0111800D03*
X0271800Y0101800D03*
X0271800Y0091800D03*
X0271800Y0081800D03*
X0271800Y0071800D03*
X0271800Y0061800D03*
X0266800Y0026800D03*
X0276800Y0026800D03*
X0286800Y0026800D03*
X0256800Y0026800D03*
X0246800Y0026800D03*
X0236800Y0026800D03*
X0226800Y0026800D03*
X0216800Y0026800D03*
X0206800Y0026800D03*
X0196800Y0026800D03*
D21*
X0151800Y0036800D03*
D22*
X0166800Y0036800D03*
X0166800Y0046800D03*
X0166800Y0056800D03*
X0166800Y0066800D03*
X0166800Y0076800D03*
X0166800Y0086800D03*
X0166800Y0096800D03*
X0166800Y0106800D03*
X0166800Y0116800D03*
X0166800Y0126800D03*
X0166800Y0136800D03*
X0166800Y0146800D03*
X0076800Y0146800D03*
X0076800Y0136800D03*
X0076800Y0126800D03*
X0076800Y0116800D03*
X0076800Y0106800D03*
X0076800Y0096800D03*
X0076800Y0086800D03*
X0076800Y0076800D03*
X0076800Y0066800D03*
X0076800Y0056800D03*
X0076800Y0046800D03*
X0076800Y0036800D03*
D23*
X0076800Y0206800D03*
X0066800Y0206800D03*
X0086800Y0206800D03*
X0096800Y0206800D03*
X0106800Y0206800D03*
X0116800Y0206800D03*
X0126800Y0206800D03*
X0136800Y0206800D03*
X0146800Y0206800D03*
X0156800Y0206800D03*
X0166800Y0206800D03*
X0176800Y0206800D03*
X0186800Y0206800D03*
X0196800Y0206800D03*
X0206800Y0206800D03*
X0216800Y0206800D03*
X0216800Y0296800D03*
X0206800Y0296800D03*
X0196800Y0296800D03*
X0186800Y0296800D03*
X0176800Y0296800D03*
X0166800Y0296800D03*
X0156800Y0296800D03*
X0146800Y0296800D03*
X0136800Y0296800D03*
X0126800Y0296800D03*
X0116800Y0296800D03*
X0106800Y0296800D03*
X0096800Y0296800D03*
X0086800Y0296800D03*
X0076800Y0296800D03*
X0066800Y0296800D03*
D24*
X0288670Y0252194D03*
D25*
X0268985Y0261643D03*
X0268985Y0272272D03*
X0268985Y0242745D03*
X0268985Y0232115D03*
D26*
X0046800Y0071800D03*
X0036800Y0071800D03*
X0026800Y0071800D03*
D27*
X0022513Y0073733D02*
X0004100Y0073733D01*
X0004100Y0072134D02*
X0022100Y0072134D01*
X0022100Y0072735D02*
X0022100Y0070865D01*
X0022816Y0069138D01*
X0024138Y0067816D01*
X0025865Y0067100D01*
X0027735Y0067100D01*
X0029462Y0067816D01*
X0030784Y0069138D01*
X0031500Y0070865D01*
X0031500Y0072735D01*
X0030784Y0074462D01*
X0029462Y0075784D01*
X0027735Y0076500D01*
X0025865Y0076500D01*
X0024138Y0075784D01*
X0022816Y0074462D01*
X0022100Y0072735D01*
X0022236Y0070536D02*
X0004100Y0070536D01*
X0004100Y0068937D02*
X0023016Y0068937D01*
X0025288Y0067339D02*
X0004100Y0067339D01*
X0004100Y0065740D02*
X0056736Y0065740D01*
X0055138Y0064142D02*
X0004100Y0064142D01*
X0004100Y0062543D02*
X0053539Y0062543D01*
X0051941Y0060945D02*
X0004100Y0060945D01*
X0004100Y0059346D02*
X0050500Y0059346D01*
X0050500Y0059504D02*
X0050500Y0021782D01*
X0048911Y0021124D01*
X0047476Y0019689D01*
X0046800Y0018056D01*
X0046124Y0019689D01*
X0044689Y0021124D01*
X0042814Y0021900D01*
X0040786Y0021900D01*
X0038911Y0021124D01*
X0037476Y0019689D01*
X0037010Y0018563D01*
X0036897Y0018911D01*
X0036504Y0019683D01*
X0035995Y0020383D01*
X0035383Y0020995D01*
X0034683Y0021504D01*
X0033911Y0021897D01*
X0033088Y0022165D01*
X0032233Y0022300D01*
X0032000Y0022300D01*
X0032000Y0017000D01*
X0031600Y0017000D01*
X0031600Y0022300D01*
X0031367Y0022300D01*
X0030512Y0022165D01*
X0029689Y0021897D01*
X0028917Y0021504D01*
X0028217Y0020995D01*
X0027605Y0020383D01*
X0027096Y0019683D01*
X0026703Y0018911D01*
X0026435Y0018088D01*
X0026300Y0017233D01*
X0026300Y0017000D01*
X0031600Y0017000D01*
X0031600Y0016600D01*
X0032000Y0016600D01*
X0032000Y0011300D01*
X0032233Y0011300D01*
X0033088Y0011435D01*
X0033911Y0011703D01*
X0034683Y0012096D01*
X0035383Y0012605D01*
X0035995Y0013217D01*
X0036504Y0013917D01*
X0036897Y0014689D01*
X0037010Y0015037D01*
X0037476Y0013911D01*
X0038911Y0012476D01*
X0040786Y0011700D01*
X0042814Y0011700D01*
X0044689Y0012476D01*
X0046124Y0013911D01*
X0046800Y0015544D01*
X0047476Y0013911D01*
X0048911Y0012476D01*
X0050786Y0011700D01*
X0052814Y0011700D01*
X0054689Y0012476D01*
X0056124Y0013911D01*
X0056900Y0015786D01*
X0056900Y0017814D01*
X0056124Y0019689D01*
X0054689Y0021124D01*
X0053900Y0021450D01*
X0053900Y0058096D01*
X0071900Y0076096D01*
X0071900Y0075825D01*
X0072646Y0074024D01*
X0074024Y0072646D01*
X0075630Y0071981D01*
X0075559Y0071969D01*
X0074766Y0071712D01*
X0074022Y0071333D01*
X0073347Y0070843D01*
X0072757Y0070253D01*
X0072267Y0069578D01*
X0071888Y0068834D01*
X0071630Y0068041D01*
X0071500Y0067217D01*
X0071500Y0067000D01*
X0076600Y0067000D01*
X0076600Y0066600D01*
X0071500Y0066600D01*
X0071500Y0066383D01*
X0071630Y0065559D01*
X0071888Y0064766D01*
X0072267Y0064022D01*
X0072757Y0063347D01*
X0073347Y0062757D01*
X0074022Y0062267D01*
X0074766Y0061888D01*
X0075559Y0061630D01*
X0075630Y0061619D01*
X0074024Y0060954D01*
X0072646Y0059576D01*
X0071900Y0057775D01*
X0071900Y0055825D01*
X0072646Y0054024D01*
X0074024Y0052646D01*
X0075825Y0051900D01*
X0077775Y0051900D01*
X0079576Y0052646D01*
X0080954Y0054024D01*
X0081192Y0054600D01*
X0087191Y0054600D01*
X0087476Y0053911D01*
X0088911Y0052476D01*
X0090544Y0051800D01*
X0088911Y0051124D01*
X0087476Y0049689D01*
X0087191Y0049000D01*
X0081192Y0049000D01*
X0080954Y0049576D01*
X0079576Y0050954D01*
X0077775Y0051700D01*
X0075825Y0051700D01*
X0074024Y0050954D01*
X0072646Y0049576D01*
X0071900Y0047775D01*
X0071900Y0045825D01*
X0072646Y0044024D01*
X0074024Y0042646D01*
X0075825Y0041900D01*
X0077775Y0041900D01*
X0079576Y0042646D01*
X0080954Y0044024D01*
X0081192Y0044600D01*
X0087191Y0044600D01*
X0087476Y0043911D01*
X0088911Y0042476D01*
X0090544Y0041800D01*
X0088911Y0041124D01*
X0087476Y0039689D01*
X0087191Y0039000D01*
X0081192Y0039000D01*
X0080954Y0039576D01*
X0079576Y0040954D01*
X0077775Y0041700D01*
X0075825Y0041700D01*
X0074024Y0040954D01*
X0072646Y0039576D01*
X0071900Y0037775D01*
X0071900Y0035825D01*
X0072646Y0034024D01*
X0074024Y0032646D01*
X0075825Y0031900D01*
X0077775Y0031900D01*
X0079576Y0032646D01*
X0080954Y0034024D01*
X0081192Y0034600D01*
X0087191Y0034600D01*
X0087476Y0033911D01*
X0088911Y0032476D01*
X0090786Y0031700D01*
X0092814Y0031700D01*
X0094689Y0032476D01*
X0096124Y0033911D01*
X0096900Y0035786D01*
X0096900Y0037814D01*
X0096124Y0039689D01*
X0094689Y0041124D01*
X0093056Y0041800D01*
X0094689Y0042476D01*
X0096124Y0043911D01*
X0096900Y0045786D01*
X0096900Y0047814D01*
X0096124Y0049689D01*
X0094689Y0051124D01*
X0093056Y0051800D01*
X0094689Y0052476D01*
X0096124Y0053911D01*
X0096699Y0055300D01*
X0146901Y0055300D01*
X0147476Y0053911D01*
X0148911Y0052476D01*
X0150544Y0051800D01*
X0148911Y0051124D01*
X0147476Y0049689D01*
X0146700Y0047814D01*
X0146700Y0045786D01*
X0147476Y0043911D01*
X0148911Y0042476D01*
X0150303Y0041900D01*
X0147520Y0041900D01*
X0146700Y0041080D01*
X0146700Y0032520D01*
X0147520Y0031700D01*
X0156080Y0031700D01*
X0156900Y0032520D01*
X0156900Y0034600D01*
X0162408Y0034600D01*
X0162646Y0034024D01*
X0164024Y0032646D01*
X0165825Y0031900D01*
X0167775Y0031900D01*
X0169576Y0032646D01*
X0170954Y0034024D01*
X0171700Y0035825D01*
X0171700Y0037775D01*
X0170954Y0039576D01*
X0169576Y0040954D01*
X0167775Y0041700D01*
X0165825Y0041700D01*
X0164024Y0040954D01*
X0162646Y0039576D01*
X0162408Y0039000D01*
X0156900Y0039000D01*
X0156900Y0041080D01*
X0156080Y0041900D01*
X0153297Y0041900D01*
X0154689Y0042476D01*
X0156124Y0043911D01*
X0156409Y0044600D01*
X0162408Y0044600D01*
X0162646Y0044024D01*
X0164024Y0042646D01*
X0165825Y0041900D01*
X0167775Y0041900D01*
X0169576Y0042646D01*
X0170954Y0044024D01*
X0171700Y0045825D01*
X0171700Y0047775D01*
X0170954Y0049576D01*
X0169576Y0050954D01*
X0167775Y0051700D01*
X0165825Y0051700D01*
X0164024Y0050954D01*
X0162646Y0049576D01*
X0162408Y0049000D01*
X0156409Y0049000D01*
X0156124Y0049689D01*
X0154689Y0051124D01*
X0153056Y0051800D01*
X0154689Y0052476D01*
X0156124Y0053911D01*
X0156409Y0054600D01*
X0162408Y0054600D01*
X0162646Y0054024D01*
X0164024Y0052646D01*
X0165825Y0051900D01*
X0167775Y0051900D01*
X0169576Y0052646D01*
X0170954Y0054024D01*
X0171100Y0054377D01*
X0171100Y0050296D01*
X0192233Y0029163D01*
X0191900Y0028830D01*
X0191900Y0024770D01*
X0194770Y0021900D01*
X0198830Y0021900D01*
X0198863Y0021933D01*
X0202696Y0018100D01*
X0277904Y0018100D01*
X0278900Y0019096D01*
X0283237Y0023433D01*
X0284770Y0021900D01*
X0288830Y0021900D01*
X0291700Y0024770D01*
X0291700Y0028830D01*
X0288830Y0031700D01*
X0284770Y0031700D01*
X0284637Y0031567D01*
X0284300Y0031904D01*
X0284300Y0042865D01*
X0284915Y0042250D01*
X0288685Y0042250D01*
X0291350Y0044915D01*
X0291350Y0048685D01*
X0288685Y0051350D01*
X0287754Y0051350D01*
X0288500Y0052096D01*
X0288500Y0052579D01*
X0289377Y0052943D01*
X0290657Y0054223D01*
X0291350Y0055895D01*
X0291350Y0057705D01*
X0290657Y0059377D01*
X0289377Y0060657D01*
X0287705Y0061350D01*
X0285895Y0061350D01*
X0284223Y0060657D01*
X0282943Y0059377D01*
X0282250Y0057705D01*
X0282250Y0055895D01*
X0282943Y0054223D01*
X0284223Y0052943D01*
X0284446Y0052850D01*
X0281896Y0050300D01*
X0280900Y0049304D01*
X0280900Y0030496D01*
X0282233Y0029163D01*
X0281900Y0028830D01*
X0281900Y0026904D01*
X0281700Y0026704D01*
X0281700Y0028830D01*
X0278830Y0031700D01*
X0275504Y0031700D01*
X0252500Y0054704D01*
X0252500Y0073474D01*
X0253644Y0073000D01*
X0259956Y0073000D01*
X0261353Y0073579D01*
X0262421Y0074647D01*
X0262609Y0075100D01*
X0267704Y0075100D01*
X0269637Y0077033D01*
X0269770Y0076900D01*
X0273830Y0076900D01*
X0276700Y0079770D01*
X0276700Y0083500D01*
X0281373Y0083500D01*
X0281546Y0083082D01*
X0282728Y0081901D01*
X0283637Y0081524D01*
X0282728Y0081148D01*
X0281546Y0079966D01*
X0281188Y0079100D01*
X0276496Y0079100D01*
X0273963Y0076567D01*
X0273830Y0076700D01*
X0269770Y0076700D01*
X0266900Y0073830D01*
X0266900Y0069770D01*
X0269770Y0066900D01*
X0273830Y0066900D01*
X0276700Y0069770D01*
X0276700Y0073830D01*
X0276367Y0074163D01*
X0277904Y0075700D01*
X0281343Y0075700D01*
X0281546Y0075208D01*
X0282728Y0074027D01*
X0284272Y0073387D01*
X0285943Y0073387D01*
X0287486Y0074027D01*
X0288668Y0075208D01*
X0289307Y0076752D01*
X0289307Y0078423D01*
X0288668Y0079966D01*
X0287486Y0081148D01*
X0286577Y0081524D01*
X0287486Y0081901D01*
X0288668Y0083082D01*
X0289307Y0084626D01*
X0289307Y0086297D01*
X0288668Y0087841D01*
X0287486Y0089022D01*
X0286577Y0089398D01*
X0287486Y0089775D01*
X0288668Y0090956D01*
X0289307Y0092500D01*
X0289307Y0094171D01*
X0288668Y0095715D01*
X0287486Y0096896D01*
X0286577Y0097272D01*
X0287486Y0097649D01*
X0288668Y0098830D01*
X0289307Y0100374D01*
X0289307Y0102045D01*
X0288668Y0103589D01*
X0287486Y0104770D01*
X0286577Y0105146D01*
X0287486Y0105523D01*
X0288668Y0106704D01*
X0289307Y0108248D01*
X0289307Y0109919D01*
X0289136Y0110332D01*
X0293300Y0114496D01*
X0293300Y0167100D01*
X0293747Y0167100D01*
X0296500Y0169853D01*
X0296500Y0173747D01*
X0293747Y0176500D01*
X0289853Y0176500D01*
X0287100Y0173747D01*
X0287100Y0169853D01*
X0289853Y0167100D01*
X0289900Y0167100D01*
X0289900Y0115904D01*
X0288734Y0114738D01*
X0289307Y0116122D01*
X0289307Y0117793D01*
X0288668Y0119337D01*
X0287486Y0120518D01*
X0286577Y0120894D01*
X0287486Y0121271D01*
X0288668Y0122452D01*
X0289307Y0123996D01*
X0289307Y0125667D01*
X0288668Y0127211D01*
X0287486Y0128392D01*
X0286577Y0128768D01*
X0287486Y0129145D01*
X0288668Y0130326D01*
X0289307Y0131870D01*
X0289307Y0133541D01*
X0288668Y0135085D01*
X0287486Y0136266D01*
X0286577Y0136643D01*
X0287486Y0137019D01*
X0288668Y0138200D01*
X0289307Y0139744D01*
X0289307Y0141415D01*
X0288668Y0142959D01*
X0287486Y0144140D01*
X0286577Y0144517D01*
X0287486Y0144893D01*
X0288668Y0146074D01*
X0289307Y0147618D01*
X0289307Y0149289D01*
X0288668Y0150833D01*
X0287486Y0152014D01*
X0285943Y0152654D01*
X0284272Y0152654D01*
X0283762Y0152442D01*
X0276567Y0159637D01*
X0276700Y0159770D01*
X0276700Y0163830D01*
X0273830Y0166700D01*
X0272304Y0166700D01*
X0275504Y0169900D01*
X0277100Y0169900D01*
X0277100Y0169853D01*
X0279853Y0167100D01*
X0283747Y0167100D01*
X0286500Y0169853D01*
X0286500Y0173747D01*
X0283747Y0176500D01*
X0279853Y0176500D01*
X0277100Y0173747D01*
X0277100Y0173300D01*
X0274096Y0173300D01*
X0273100Y0172304D01*
X0265521Y0164725D01*
X0263747Y0166500D01*
X0259853Y0166500D01*
X0257100Y0163747D01*
X0257100Y0159853D01*
X0259853Y0157100D01*
X0263747Y0157100D01*
X0266500Y0159853D01*
X0266500Y0160896D01*
X0266900Y0161296D01*
X0266900Y0159770D01*
X0269770Y0156900D01*
X0273830Y0156900D01*
X0274163Y0157233D01*
X0281259Y0150137D01*
X0280907Y0149289D01*
X0280907Y0147618D01*
X0281546Y0146074D01*
X0282728Y0144893D01*
X0283637Y0144517D01*
X0282728Y0144140D01*
X0282296Y0143708D01*
X0276467Y0149537D01*
X0276700Y0149770D01*
X0276700Y0153830D01*
X0273830Y0156700D01*
X0269770Y0156700D01*
X0266900Y0153830D01*
X0266900Y0149770D01*
X0269770Y0146900D01*
X0273830Y0146900D01*
X0274063Y0147133D01*
X0280907Y0140289D01*
X0280907Y0139744D01*
X0281546Y0138200D01*
X0282728Y0137019D01*
X0283637Y0136643D01*
X0282728Y0136266D01*
X0281546Y0135085D01*
X0281470Y0134900D01*
X0280904Y0134900D01*
X0276367Y0139437D01*
X0276700Y0139770D01*
X0276700Y0143830D01*
X0273830Y0146700D01*
X0269770Y0146700D01*
X0266900Y0143830D01*
X0266900Y0139770D01*
X0269770Y0136900D01*
X0273830Y0136900D01*
X0273963Y0137033D01*
X0279496Y0131500D01*
X0281060Y0131500D01*
X0281546Y0130326D01*
X0282728Y0129145D01*
X0283637Y0128768D01*
X0282728Y0128392D01*
X0281546Y0127211D01*
X0281501Y0127100D01*
X0278504Y0127100D01*
X0276267Y0129337D01*
X0276700Y0129770D01*
X0276700Y0133830D01*
X0273830Y0136700D01*
X0269770Y0136700D01*
X0266900Y0133830D01*
X0266900Y0129770D01*
X0269770Y0126900D01*
X0273830Y0126900D01*
X0273863Y0126933D01*
X0277096Y0123700D01*
X0281030Y0123700D01*
X0281546Y0122452D01*
X0282728Y0121271D01*
X0283637Y0120894D01*
X0282728Y0120518D01*
X0281546Y0119337D01*
X0281283Y0118700D01*
X0277304Y0118700D01*
X0276467Y0119537D01*
X0276700Y0119770D01*
X0276700Y0123830D01*
X0273830Y0126700D01*
X0269770Y0126700D01*
X0266900Y0123830D01*
X0266900Y0119770D01*
X0268933Y0117737D01*
X0265300Y0114104D01*
X0265300Y0100304D01*
X0262869Y0097873D01*
X0262421Y0098953D01*
X0261353Y0100021D01*
X0260131Y0100527D01*
X0264500Y0104896D01*
X0264500Y0108704D01*
X0263504Y0109700D01*
X0260131Y0113073D01*
X0261353Y0113579D01*
X0262421Y0114647D01*
X0263000Y0116044D01*
X0263000Y0117556D01*
X0262421Y0118953D01*
X0261353Y0120021D01*
X0259956Y0120600D01*
X0255604Y0120600D01*
X0252893Y0123311D01*
X0253644Y0123000D01*
X0259956Y0123000D01*
X0261353Y0123579D01*
X0262421Y0124647D01*
X0263000Y0126044D01*
X0263000Y0127556D01*
X0262421Y0128953D01*
X0261353Y0130021D01*
X0259956Y0130600D01*
X0253644Y0130600D01*
X0252247Y0130021D01*
X0251179Y0128953D01*
X0250600Y0127556D01*
X0250600Y0126044D01*
X0250911Y0125293D01*
X0241304Y0134900D01*
X0232526Y0134900D01*
X0233000Y0136044D01*
X0233000Y0137556D01*
X0232421Y0138953D01*
X0231353Y0140021D01*
X0229956Y0140600D01*
X0228500Y0140600D01*
X0228500Y0147704D01*
X0226425Y0149779D01*
X0226500Y0149853D01*
X0226500Y0150896D01*
X0232096Y0145300D01*
X0255100Y0145300D01*
X0255100Y0140600D01*
X0253644Y0140600D01*
X0252247Y0140021D01*
X0251179Y0138953D01*
X0250600Y0137556D01*
X0250600Y0136044D01*
X0251179Y0134647D01*
X0252247Y0133579D01*
X0253644Y0133000D01*
X0259956Y0133000D01*
X0261353Y0133579D01*
X0262421Y0134647D01*
X0263000Y0136044D01*
X0263000Y0137556D01*
X0262421Y0138953D01*
X0261353Y0140021D01*
X0259956Y0140600D01*
X0258500Y0140600D01*
X0258500Y0146296D01*
X0259579Y0147375D01*
X0259853Y0147100D01*
X0263747Y0147100D01*
X0266500Y0149853D01*
X0266500Y0153747D01*
X0263747Y0156500D01*
X0259853Y0156500D01*
X0257100Y0153747D01*
X0257100Y0149853D01*
X0257175Y0149779D01*
X0256096Y0148700D01*
X0233504Y0148700D01*
X0224425Y0157779D01*
X0226500Y0159853D01*
X0226500Y0163747D01*
X0223747Y0166500D01*
X0219853Y0166500D01*
X0217100Y0163747D01*
X0217100Y0159853D01*
X0218053Y0158900D01*
X0216704Y0158900D01*
X0216267Y0159337D01*
X0216700Y0159770D01*
X0216700Y0163830D01*
X0213830Y0166700D01*
X0209770Y0166700D01*
X0206900Y0163830D01*
X0206900Y0159770D01*
X0207033Y0159637D01*
X0200049Y0152654D01*
X0195113Y0152654D01*
X0194293Y0151833D01*
X0194293Y0149900D01*
X0190096Y0149900D01*
X0173300Y0133104D01*
X0173300Y0149504D01*
X0172304Y0150500D01*
X0168500Y0154304D01*
X0168500Y0201930D01*
X0169717Y0202434D01*
X0171166Y0203883D01*
X0171800Y0205413D01*
X0172434Y0203883D01*
X0173883Y0202434D01*
X0175776Y0201650D01*
X0177824Y0201650D01*
X0179717Y0202434D01*
X0181166Y0203883D01*
X0181800Y0205413D01*
X0182434Y0203883D01*
X0183883Y0202434D01*
X0185776Y0201650D01*
X0187824Y0201650D01*
X0189717Y0202434D01*
X0191166Y0203883D01*
X0191800Y0205413D01*
X0192434Y0203883D01*
X0193883Y0202434D01*
X0195776Y0201650D01*
X0197824Y0201650D01*
X0198135Y0201778D01*
X0203900Y0196013D01*
X0205013Y0194900D01*
X0244587Y0194900D01*
X0281587Y0231900D01*
X0282700Y0233013D01*
X0282700Y0243537D01*
X0285672Y0246508D01*
X0287397Y0245794D01*
X0289943Y0245794D01*
X0292295Y0246768D01*
X0294096Y0248568D01*
X0295070Y0250921D01*
X0295070Y0253467D01*
X0294096Y0255819D01*
X0292295Y0257619D01*
X0289943Y0258594D01*
X0287397Y0258594D01*
X0285045Y0257619D01*
X0283244Y0255819D01*
X0282270Y0253467D01*
X0282270Y0250921D01*
X0282985Y0249195D01*
X0278900Y0245111D01*
X0278900Y0234587D01*
X0274493Y0230180D01*
X0274814Y0230955D01*
X0274814Y0233274D01*
X0273927Y0235417D01*
X0272287Y0237057D01*
X0271386Y0237430D01*
X0272287Y0237803D01*
X0273927Y0239443D01*
X0274814Y0241585D01*
X0274814Y0243904D01*
X0273927Y0246047D01*
X0272287Y0247687D01*
X0272018Y0247798D01*
X0273438Y0249218D01*
X0274238Y0251149D01*
X0274238Y0253239D01*
X0273438Y0255169D01*
X0272018Y0256589D01*
X0272287Y0256701D01*
X0273927Y0258341D01*
X0274814Y0260483D01*
X0274814Y0262802D01*
X0273927Y0264944D01*
X0272287Y0266584D01*
X0271386Y0266957D01*
X0272287Y0267331D01*
X0273927Y0268970D01*
X0274814Y0271113D01*
X0274814Y0273432D01*
X0273927Y0275574D01*
X0272287Y0277214D01*
X0270145Y0278102D01*
X0267826Y0278102D01*
X0265683Y0277214D01*
X0264043Y0275574D01*
X0263156Y0273432D01*
X0263156Y0271113D01*
X0263904Y0269308D01*
X0215500Y0220904D01*
X0215500Y0211836D01*
X0213883Y0211166D01*
X0212434Y0209717D01*
X0211800Y0208187D01*
X0211166Y0209717D01*
X0209717Y0211166D01*
X0207824Y0211950D01*
X0205776Y0211950D01*
X0203883Y0211166D01*
X0202434Y0209717D01*
X0201800Y0208187D01*
X0201166Y0209717D01*
X0199717Y0211166D01*
X0197824Y0211950D01*
X0195776Y0211950D01*
X0193883Y0211166D01*
X0192434Y0209717D01*
X0191800Y0208187D01*
X0191166Y0209717D01*
X0189717Y0211166D01*
X0187824Y0211950D01*
X0185776Y0211950D01*
X0183883Y0211166D01*
X0182434Y0209717D01*
X0181800Y0208187D01*
X0181166Y0209717D01*
X0179717Y0211166D01*
X0177824Y0211950D01*
X0175776Y0211950D01*
X0173883Y0211166D01*
X0172434Y0209717D01*
X0171800Y0208187D01*
X0171166Y0209717D01*
X0169717Y0211166D01*
X0167824Y0211950D01*
X0165776Y0211950D01*
X0163883Y0211166D01*
X0162434Y0209717D01*
X0162016Y0208708D01*
X0161943Y0208930D01*
X0161547Y0209709D01*
X0161033Y0210416D01*
X0160416Y0211033D01*
X0159709Y0211547D01*
X0158930Y0211943D01*
X0158100Y0212213D01*
X0157250Y0212348D01*
X0157250Y0207250D01*
X0156350Y0207250D01*
X0156350Y0212348D01*
X0155500Y0212213D01*
X0154670Y0211943D01*
X0153891Y0211547D01*
X0153184Y0211033D01*
X0152567Y0210416D01*
X0152053Y0209709D01*
X0151657Y0208930D01*
X0151584Y0208708D01*
X0151166Y0209717D01*
X0149717Y0211166D01*
X0147824Y0211950D01*
X0145776Y0211950D01*
X0143883Y0211166D01*
X0142434Y0209717D01*
X0141800Y0208187D01*
X0141166Y0209717D01*
X0139717Y0211166D01*
X0137824Y0211950D01*
X0135776Y0211950D01*
X0133883Y0211166D01*
X0132434Y0209717D01*
X0131800Y0208187D01*
X0131166Y0209717D01*
X0129717Y0211166D01*
X0127824Y0211950D01*
X0125776Y0211950D01*
X0123883Y0211166D01*
X0122434Y0209717D01*
X0121800Y0208187D01*
X0121166Y0209717D01*
X0119717Y0211166D01*
X0117824Y0211950D01*
X0115776Y0211950D01*
X0113883Y0211166D01*
X0112434Y0209717D01*
X0111800Y0208187D01*
X0111166Y0209717D01*
X0109717Y0211166D01*
X0107824Y0211950D01*
X0105776Y0211950D01*
X0103883Y0211166D01*
X0102434Y0209717D01*
X0101800Y0208187D01*
X0101166Y0209717D01*
X0099717Y0211166D01*
X0097824Y0211950D01*
X0095776Y0211950D01*
X0093883Y0211166D01*
X0092434Y0209717D01*
X0091800Y0208187D01*
X0091166Y0209717D01*
X0089717Y0211166D01*
X0087824Y0211950D01*
X0085776Y0211950D01*
X0083883Y0211166D01*
X0082434Y0209717D01*
X0081800Y0208186D01*
X0081166Y0209717D01*
X0079717Y0211166D01*
X0077824Y0211950D01*
X0075776Y0211950D01*
X0073883Y0211166D01*
X0072434Y0209717D01*
X0071800Y0208187D01*
X0071166Y0209717D01*
X0069717Y0211166D01*
X0067824Y0211950D01*
X0065776Y0211950D01*
X0063883Y0211166D01*
X0062434Y0209717D01*
X0061650Y0207824D01*
X0061650Y0205776D01*
X0062434Y0203883D01*
X0063883Y0202434D01*
X0065500Y0201764D01*
X0065500Y0109096D01*
X0073300Y0101296D01*
X0073833Y0100763D01*
X0072646Y0099576D01*
X0071900Y0097775D01*
X0071900Y0095825D01*
X0072646Y0094024D01*
X0074024Y0092646D01*
X0075825Y0091900D01*
X0077775Y0091900D01*
X0079576Y0092646D01*
X0080954Y0094024D01*
X0081192Y0094600D01*
X0087191Y0094600D01*
X0087476Y0093911D01*
X0088911Y0092476D01*
X0090544Y0091800D01*
X0088911Y0091124D01*
X0087476Y0089689D01*
X0087191Y0089000D01*
X0081192Y0089000D01*
X0080954Y0089576D01*
X0079576Y0090954D01*
X0077775Y0091700D01*
X0075825Y0091700D01*
X0074024Y0090954D01*
X0072646Y0089576D01*
X0071900Y0087775D01*
X0071900Y0085825D01*
X0072646Y0084024D01*
X0073833Y0082837D01*
X0050500Y0059504D01*
X0050500Y0057748D02*
X0004100Y0057748D01*
X0004100Y0056149D02*
X0050500Y0056149D01*
X0050500Y0054551D02*
X0004100Y0054551D01*
X0004100Y0052952D02*
X0050500Y0052952D01*
X0050500Y0051354D02*
X0004100Y0051354D01*
X0004100Y0049755D02*
X0050500Y0049755D01*
X0050500Y0048157D02*
X0004100Y0048157D01*
X0004100Y0046558D02*
X0050500Y0046558D01*
X0050500Y0044960D02*
X0004100Y0044960D01*
X0004100Y0043361D02*
X0050500Y0043361D01*
X0050500Y0041763D02*
X0004100Y0041763D01*
X0004100Y0040164D02*
X0050500Y0040164D01*
X0050500Y0038566D02*
X0004100Y0038566D01*
X0004100Y0036967D02*
X0050500Y0036967D01*
X0050500Y0035369D02*
X0004100Y0035369D01*
X0004100Y0033770D02*
X0050500Y0033770D01*
X0050500Y0032172D02*
X0004100Y0032172D01*
X0004100Y0030573D02*
X0050500Y0030573D01*
X0050500Y0028975D02*
X0004100Y0028975D01*
X0004100Y0027376D02*
X0050500Y0027376D01*
X0050500Y0025778D02*
X0004100Y0025778D01*
X0004100Y0024179D02*
X0050500Y0024179D01*
X0050500Y0022581D02*
X0004100Y0022581D01*
X0004100Y0020982D02*
X0028204Y0020982D01*
X0026944Y0019384D02*
X0015962Y0019384D01*
X0016671Y0019090D02*
X0013510Y0020399D01*
X0010090Y0020399D01*
X0006929Y0019090D01*
X0004510Y0016671D01*
X0004100Y0015681D01*
X0004100Y0307919D01*
X0004510Y0306929D01*
X0006929Y0304510D01*
X0010090Y0303201D01*
X0013510Y0303201D01*
X0016671Y0304510D01*
X0019090Y0306929D01*
X0020399Y0310090D01*
X0020399Y0313510D01*
X0298201Y0313510D01*
X0298201Y0310090D01*
X0299510Y0306929D01*
X0301929Y0304510D01*
X0305090Y0303201D01*
X0308510Y0303201D01*
X0311671Y0304510D01*
X0313201Y0306040D01*
X0313201Y0017560D01*
X0311671Y0019090D01*
X0308510Y0020399D01*
X0305090Y0020399D01*
X0301929Y0019090D01*
X0299510Y0016671D01*
X0298201Y0013510D01*
X0298201Y0010090D01*
X0299510Y0006929D01*
X0301929Y0004510D01*
X0302919Y0004100D01*
X0015681Y0004100D01*
X0016671Y0004510D01*
X0019090Y0006929D01*
X0020399Y0010090D01*
X0020399Y0013510D01*
X0019090Y0016671D01*
X0016671Y0019090D01*
X0017976Y0017785D02*
X0026387Y0017785D01*
X0026300Y0016600D02*
X0026300Y0016367D01*
X0026435Y0015512D01*
X0026703Y0014689D01*
X0027096Y0013917D01*
X0027605Y0013217D01*
X0028217Y0012605D01*
X0028917Y0012096D01*
X0029689Y0011703D01*
X0030512Y0011435D01*
X0031367Y0011300D01*
X0031600Y0011300D01*
X0031600Y0016600D01*
X0026300Y0016600D01*
X0026329Y0016187D02*
X0019291Y0016187D01*
X0019953Y0014588D02*
X0026754Y0014588D01*
X0027832Y0012990D02*
X0020399Y0012990D01*
X0020399Y0011391D02*
X0030792Y0011391D01*
X0031600Y0011391D02*
X0032000Y0011391D01*
X0032808Y0011391D02*
X0298201Y0011391D01*
X0298201Y0012990D02*
X0055202Y0012990D01*
X0056404Y0014588D02*
X0298647Y0014588D01*
X0299309Y0016187D02*
X0056900Y0016187D01*
X0056900Y0017785D02*
X0300624Y0017785D01*
X0302638Y0019384D02*
X0279188Y0019384D01*
X0278900Y0019096D02*
X0278900Y0019096D01*
X0280786Y0020982D02*
X0313201Y0020982D01*
X0313201Y0019384D02*
X0310962Y0019384D01*
X0312976Y0017785D02*
X0313201Y0017785D01*
X0313201Y0022581D02*
X0289510Y0022581D01*
X0291109Y0024179D02*
X0313201Y0024179D01*
X0313201Y0025778D02*
X0291700Y0025778D01*
X0291700Y0027376D02*
X0313201Y0027376D01*
X0313201Y0028975D02*
X0291555Y0028975D01*
X0289956Y0030573D02*
X0313201Y0030573D01*
X0313201Y0032172D02*
X0284300Y0032172D01*
X0284300Y0033770D02*
X0313201Y0033770D01*
X0313201Y0035369D02*
X0284300Y0035369D01*
X0284300Y0036967D02*
X0313201Y0036967D01*
X0313201Y0038566D02*
X0284300Y0038566D01*
X0284300Y0040164D02*
X0313201Y0040164D01*
X0313201Y0041763D02*
X0284300Y0041763D01*
X0280900Y0041763D02*
X0265441Y0041763D01*
X0263843Y0043361D02*
X0280900Y0043361D01*
X0280900Y0044960D02*
X0262244Y0044960D01*
X0260646Y0046558D02*
X0280900Y0046558D01*
X0280900Y0048157D02*
X0259047Y0048157D01*
X0257449Y0049755D02*
X0281351Y0049755D01*
X0282950Y0051354D02*
X0255850Y0051354D01*
X0254252Y0052952D02*
X0284213Y0052952D01*
X0282807Y0054551D02*
X0252653Y0054551D01*
X0252500Y0056149D02*
X0282250Y0056149D01*
X0282268Y0057748D02*
X0274678Y0057748D01*
X0273830Y0056900D02*
X0276700Y0059770D01*
X0276700Y0063830D01*
X0273830Y0066700D01*
X0269770Y0066700D01*
X0266900Y0063830D01*
X0266900Y0059770D01*
X0269770Y0056900D01*
X0273830Y0056900D01*
X0276276Y0059346D02*
X0282930Y0059346D01*
X0284917Y0060945D02*
X0276700Y0060945D01*
X0276700Y0062543D02*
X0313201Y0062543D01*
X0313201Y0060945D02*
X0288683Y0060945D01*
X0290670Y0059346D02*
X0313201Y0059346D01*
X0313201Y0057748D02*
X0291332Y0057748D01*
X0291350Y0056149D02*
X0313201Y0056149D01*
X0313201Y0054551D02*
X0290793Y0054551D01*
X0289387Y0052952D02*
X0313201Y0052952D01*
X0313201Y0051354D02*
X0287758Y0051354D01*
X0290279Y0049755D02*
X0313201Y0049755D01*
X0313201Y0048157D02*
X0291350Y0048157D01*
X0291350Y0046558D02*
X0313201Y0046558D01*
X0313201Y0044960D02*
X0291350Y0044960D01*
X0289796Y0043361D02*
X0313201Y0043361D01*
X0313201Y0064142D02*
X0276388Y0064142D01*
X0274789Y0065740D02*
X0313201Y0065740D01*
X0313201Y0067339D02*
X0274269Y0067339D01*
X0275867Y0068937D02*
X0313201Y0068937D01*
X0313201Y0070536D02*
X0276700Y0070536D01*
X0276700Y0072134D02*
X0313201Y0072134D01*
X0313201Y0073733D02*
X0286777Y0073733D01*
X0288719Y0075332D02*
X0313201Y0075332D01*
X0313201Y0076930D02*
X0289307Y0076930D01*
X0289263Y0078529D02*
X0313201Y0078529D01*
X0313201Y0080127D02*
X0288507Y0080127D01*
X0287063Y0081726D02*
X0313201Y0081726D01*
X0313201Y0083324D02*
X0288768Y0083324D01*
X0289307Y0084923D02*
X0313201Y0084923D01*
X0313201Y0086521D02*
X0289214Y0086521D01*
X0288389Y0088120D02*
X0313201Y0088120D01*
X0313201Y0089718D02*
X0287349Y0089718D01*
X0288817Y0091317D02*
X0313201Y0091317D01*
X0313201Y0092915D02*
X0289307Y0092915D01*
X0289165Y0094514D02*
X0313201Y0094514D01*
X0313201Y0096112D02*
X0288270Y0096112D01*
X0287548Y0097711D02*
X0313201Y0097711D01*
X0313201Y0099309D02*
X0288866Y0099309D01*
X0289307Y0100908D02*
X0313201Y0100908D01*
X0313201Y0102506D02*
X0289116Y0102506D01*
X0288151Y0104105D02*
X0313201Y0104105D01*
X0313201Y0105703D02*
X0287667Y0105703D01*
X0288915Y0107302D02*
X0313201Y0107302D01*
X0313201Y0108900D02*
X0289307Y0108900D01*
X0289303Y0110499D02*
X0313201Y0110499D01*
X0313201Y0112097D02*
X0290901Y0112097D01*
X0292500Y0113696D02*
X0313201Y0113696D01*
X0313201Y0115294D02*
X0293300Y0115294D01*
X0293300Y0116893D02*
X0313201Y0116893D01*
X0313201Y0118491D02*
X0293300Y0118491D01*
X0293300Y0120090D02*
X0313201Y0120090D01*
X0313201Y0121688D02*
X0293300Y0121688D01*
X0293300Y0123287D02*
X0313201Y0123287D01*
X0313201Y0124885D02*
X0293300Y0124885D01*
X0293300Y0126484D02*
X0313201Y0126484D01*
X0313201Y0128082D02*
X0293300Y0128082D01*
X0293300Y0129681D02*
X0313201Y0129681D01*
X0313201Y0131279D02*
X0293300Y0131279D01*
X0293300Y0132878D02*
X0313201Y0132878D01*
X0313201Y0134476D02*
X0293300Y0134476D01*
X0293300Y0136075D02*
X0313201Y0136075D01*
X0313201Y0137673D02*
X0293300Y0137673D01*
X0293300Y0139272D02*
X0313201Y0139272D01*
X0313201Y0140870D02*
X0293300Y0140870D01*
X0293300Y0142469D02*
X0313201Y0142469D01*
X0313201Y0144068D02*
X0293300Y0144068D01*
X0293300Y0145666D02*
X0313201Y0145666D01*
X0313201Y0147265D02*
X0293300Y0147265D01*
X0293300Y0148863D02*
X0313201Y0148863D01*
X0313201Y0150462D02*
X0293300Y0150462D01*
X0293300Y0152060D02*
X0313201Y0152060D01*
X0313201Y0153659D02*
X0293300Y0153659D01*
X0293300Y0155257D02*
X0313201Y0155257D01*
X0313201Y0156856D02*
X0293300Y0156856D01*
X0293300Y0158454D02*
X0313201Y0158454D01*
X0313201Y0160053D02*
X0293300Y0160053D01*
X0293300Y0161651D02*
X0313201Y0161651D01*
X0313201Y0163250D02*
X0293300Y0163250D01*
X0293300Y0164848D02*
X0313201Y0164848D01*
X0313201Y0166447D02*
X0293300Y0166447D01*
X0294692Y0168045D02*
X0313201Y0168045D01*
X0313201Y0169644D02*
X0296290Y0169644D01*
X0296500Y0171242D02*
X0313201Y0171242D01*
X0313201Y0172841D02*
X0296500Y0172841D01*
X0295808Y0174439D02*
X0313201Y0174439D01*
X0313201Y0176038D02*
X0294209Y0176038D01*
X0289391Y0176038D02*
X0284209Y0176038D01*
X0285808Y0174439D02*
X0287792Y0174439D01*
X0287100Y0172841D02*
X0286500Y0172841D01*
X0286500Y0171242D02*
X0287100Y0171242D01*
X0287310Y0169644D02*
X0286290Y0169644D01*
X0284692Y0168045D02*
X0288908Y0168045D01*
X0289900Y0166447D02*
X0274083Y0166447D01*
X0273649Y0168045D02*
X0278908Y0168045D01*
X0277310Y0169644D02*
X0275248Y0169644D01*
X0273637Y0172841D02*
X0266500Y0172841D01*
X0266500Y0173747D02*
X0263747Y0176500D01*
X0259853Y0176500D01*
X0257100Y0173747D01*
X0257100Y0169853D01*
X0259853Y0167100D01*
X0263747Y0167100D01*
X0266500Y0169853D01*
X0266500Y0173747D01*
X0265808Y0174439D02*
X0277792Y0174439D01*
X0279391Y0176038D02*
X0264209Y0176038D01*
X0259391Y0176038D02*
X0224209Y0176038D01*
X0223747Y0176500D02*
X0219853Y0176500D01*
X0217253Y0173900D01*
X0206347Y0173900D01*
X0203747Y0176500D01*
X0199853Y0176500D01*
X0197100Y0173747D01*
X0197100Y0169853D01*
X0199853Y0167100D01*
X0203747Y0167100D01*
X0206500Y0169853D01*
X0206500Y0170500D01*
X0217100Y0170500D01*
X0217100Y0169853D01*
X0219853Y0167100D01*
X0223747Y0167100D01*
X0226500Y0169853D01*
X0226500Y0173747D01*
X0223747Y0176500D01*
X0225808Y0174439D02*
X0257792Y0174439D01*
X0257100Y0172841D02*
X0226500Y0172841D01*
X0226500Y0171242D02*
X0257100Y0171242D01*
X0257310Y0169644D02*
X0226290Y0169644D01*
X0224692Y0168045D02*
X0258908Y0168045D01*
X0259800Y0166447D02*
X0223800Y0166447D01*
X0225399Y0164848D02*
X0258201Y0164848D01*
X0257100Y0163250D02*
X0226500Y0163250D01*
X0226500Y0161651D02*
X0257100Y0161651D01*
X0257100Y0160053D02*
X0226500Y0160053D01*
X0225101Y0158454D02*
X0258499Y0158454D01*
X0258610Y0155257D02*
X0226947Y0155257D01*
X0228546Y0153659D02*
X0257100Y0153659D01*
X0257100Y0152060D02*
X0230144Y0152060D01*
X0231743Y0150462D02*
X0257100Y0150462D01*
X0256259Y0148863D02*
X0233341Y0148863D01*
X0231730Y0145666D02*
X0228500Y0145666D01*
X0228500Y0144068D02*
X0255100Y0144068D01*
X0255100Y0142469D02*
X0228500Y0142469D01*
X0228500Y0140870D02*
X0255100Y0140870D01*
X0258500Y0140870D02*
X0266900Y0140870D01*
X0266900Y0142469D02*
X0258500Y0142469D01*
X0258500Y0144068D02*
X0267138Y0144068D01*
X0268736Y0145666D02*
X0258500Y0145666D01*
X0259469Y0147265D02*
X0259689Y0147265D01*
X0263911Y0147265D02*
X0269406Y0147265D01*
X0267807Y0148863D02*
X0265510Y0148863D01*
X0266500Y0150462D02*
X0266900Y0150462D01*
X0266900Y0152060D02*
X0266500Y0152060D01*
X0266500Y0153659D02*
X0266900Y0153659D01*
X0268327Y0155257D02*
X0264990Y0155257D01*
X0265101Y0158454D02*
X0268216Y0158454D01*
X0266900Y0160053D02*
X0266500Y0160053D01*
X0265644Y0164848D02*
X0265399Y0164848D01*
X0263800Y0166447D02*
X0267243Y0166447D01*
X0268841Y0168045D02*
X0264692Y0168045D01*
X0266290Y0169644D02*
X0270440Y0169644D01*
X0272038Y0171242D02*
X0266500Y0171242D01*
X0275681Y0164848D02*
X0289900Y0164848D01*
X0289900Y0163250D02*
X0276700Y0163250D01*
X0276700Y0161651D02*
X0289900Y0161651D01*
X0289900Y0160053D02*
X0276700Y0160053D01*
X0277750Y0158454D02*
X0289900Y0158454D01*
X0289900Y0156856D02*
X0279349Y0156856D01*
X0280947Y0155257D02*
X0289900Y0155257D01*
X0289900Y0153659D02*
X0282546Y0153659D01*
X0280934Y0150462D02*
X0276700Y0150462D01*
X0276700Y0152060D02*
X0279336Y0152060D01*
X0277737Y0153659D02*
X0276700Y0153659D01*
X0276139Y0155257D02*
X0275273Y0155257D01*
X0274540Y0156856D02*
X0225349Y0156856D01*
X0226500Y0150462D02*
X0226934Y0150462D01*
X0227341Y0148863D02*
X0228533Y0148863D01*
X0228500Y0147265D02*
X0230131Y0147265D01*
X0232102Y0139272D02*
X0251498Y0139272D01*
X0250649Y0137673D02*
X0232951Y0137673D01*
X0233000Y0136075D02*
X0250600Y0136075D01*
X0251350Y0134476D02*
X0241728Y0134476D01*
X0243326Y0132878D02*
X0266900Y0132878D01*
X0266900Y0131279D02*
X0244925Y0131279D01*
X0246523Y0129681D02*
X0251907Y0129681D01*
X0250818Y0128082D02*
X0248122Y0128082D01*
X0249720Y0126484D02*
X0250600Y0126484D01*
X0252917Y0123287D02*
X0252952Y0123287D01*
X0254516Y0121688D02*
X0266900Y0121688D01*
X0266900Y0120090D02*
X0261187Y0120090D01*
X0262613Y0118491D02*
X0268179Y0118491D01*
X0268089Y0116893D02*
X0263000Y0116893D01*
X0262689Y0115294D02*
X0266490Y0115294D01*
X0265300Y0113696D02*
X0261470Y0113696D01*
X0261107Y0112097D02*
X0265300Y0112097D01*
X0265300Y0110499D02*
X0262705Y0110499D01*
X0263504Y0109700D02*
X0263504Y0109700D01*
X0264304Y0108900D02*
X0265300Y0108900D01*
X0265300Y0107302D02*
X0264500Y0107302D01*
X0264500Y0105703D02*
X0265300Y0105703D01*
X0265300Y0104105D02*
X0263709Y0104105D01*
X0265300Y0102506D02*
X0262110Y0102506D01*
X0260512Y0100908D02*
X0265300Y0100908D01*
X0264305Y0099309D02*
X0262065Y0099309D01*
X0276700Y0083324D02*
X0281446Y0083324D01*
X0283151Y0081726D02*
X0276700Y0081726D01*
X0276700Y0080127D02*
X0281707Y0080127D01*
X0281495Y0075332D02*
X0277536Y0075332D01*
X0276700Y0073733D02*
X0283437Y0073733D01*
X0275924Y0078529D02*
X0275458Y0078529D01*
X0274326Y0076930D02*
X0273860Y0076930D01*
X0269740Y0076930D02*
X0269534Y0076930D01*
X0268402Y0075332D02*
X0267936Y0075332D01*
X0266900Y0073733D02*
X0261507Y0073733D01*
X0266900Y0072134D02*
X0252500Y0072134D01*
X0252500Y0070536D02*
X0266900Y0070536D01*
X0267733Y0068937D02*
X0252500Y0068937D01*
X0252500Y0067339D02*
X0269331Y0067339D01*
X0268811Y0065740D02*
X0252500Y0065740D01*
X0252500Y0064142D02*
X0267212Y0064142D01*
X0266900Y0062543D02*
X0252500Y0062543D01*
X0252500Y0060945D02*
X0266900Y0060945D01*
X0267324Y0059346D02*
X0252500Y0059346D01*
X0252500Y0057748D02*
X0268922Y0057748D01*
X0257436Y0044960D02*
X0244100Y0044960D01*
X0244100Y0046558D02*
X0255838Y0046558D01*
X0254239Y0048157D02*
X0249804Y0048157D01*
X0248747Y0047100D02*
X0251500Y0049853D01*
X0251500Y0050896D01*
X0272733Y0029663D01*
X0271900Y0028830D01*
X0271900Y0024770D01*
X0274770Y0021900D01*
X0276896Y0021900D01*
X0276496Y0021500D01*
X0260304Y0021500D01*
X0262737Y0023933D01*
X0264770Y0021900D01*
X0268830Y0021900D01*
X0271700Y0024770D01*
X0271700Y0028830D01*
X0268830Y0031700D01*
X0264770Y0031700D01*
X0261900Y0028830D01*
X0261900Y0027904D01*
X0261700Y0027704D01*
X0261700Y0028830D01*
X0258830Y0031700D01*
X0254770Y0031700D01*
X0252083Y0029012D01*
X0248995Y0032100D01*
X0247000Y0032100D01*
X0247000Y0027000D01*
X0246600Y0027000D01*
X0246600Y0032100D01*
X0244605Y0032100D01*
X0241517Y0029012D01*
X0239067Y0031463D01*
X0243104Y0035500D01*
X0244100Y0036496D01*
X0244100Y0047853D01*
X0244853Y0047100D01*
X0248747Y0047100D01*
X0251402Y0049755D02*
X0252641Y0049755D01*
X0259035Y0043361D02*
X0244100Y0043361D01*
X0244100Y0041763D02*
X0260633Y0041763D01*
X0262232Y0040164D02*
X0244100Y0040164D01*
X0244100Y0038566D02*
X0263830Y0038566D01*
X0265429Y0036967D02*
X0244100Y0036967D01*
X0242973Y0035369D02*
X0267027Y0035369D01*
X0268626Y0033770D02*
X0241374Y0033770D01*
X0239776Y0032172D02*
X0270224Y0032172D01*
X0269956Y0030573D02*
X0271823Y0030573D01*
X0272045Y0028975D02*
X0271555Y0028975D01*
X0271700Y0027376D02*
X0271900Y0027376D01*
X0271900Y0025778D02*
X0271700Y0025778D01*
X0271109Y0024179D02*
X0272491Y0024179D01*
X0274090Y0022581D02*
X0269510Y0022581D01*
X0264090Y0022581D02*
X0261385Y0022581D01*
X0261555Y0028975D02*
X0262045Y0028975D01*
X0263644Y0030573D02*
X0259956Y0030573D01*
X0253644Y0030573D02*
X0250522Y0030573D01*
X0247000Y0030573D02*
X0246600Y0030573D01*
X0246600Y0028975D02*
X0247000Y0028975D01*
X0247000Y0027376D02*
X0246600Y0027376D01*
X0243078Y0030573D02*
X0239956Y0030573D01*
X0215145Y0056149D02*
X0204663Y0056149D01*
X0204480Y0056333D02*
X0206500Y0058353D01*
X0206500Y0062247D01*
X0203747Y0065000D01*
X0199853Y0065000D01*
X0197100Y0062247D01*
X0197100Y0058353D01*
X0199120Y0056333D01*
X0196700Y0053912D01*
X0196700Y0051800D01*
X0201800Y0051800D01*
X0206900Y0051800D01*
X0206900Y0053912D01*
X0204480Y0056333D01*
X0205895Y0057748D02*
X0216744Y0057748D01*
X0218342Y0059346D02*
X0206500Y0059346D01*
X0206500Y0060945D02*
X0219941Y0060945D01*
X0221539Y0062543D02*
X0206203Y0062543D01*
X0204605Y0064142D02*
X0223138Y0064142D01*
X0224736Y0065740D02*
X0175700Y0065740D01*
X0175700Y0065504D02*
X0175700Y0125713D01*
X0175853Y0125650D01*
X0176947Y0125650D01*
X0177958Y0126069D01*
X0178589Y0126700D01*
X0189104Y0126700D01*
X0194293Y0131889D01*
X0194293Y0131870D01*
X0194932Y0130326D01*
X0196114Y0129145D01*
X0197023Y0128768D01*
X0196114Y0128392D01*
X0194932Y0127211D01*
X0194293Y0125667D01*
X0194293Y0123996D01*
X0194932Y0122452D01*
X0196114Y0121271D01*
X0197023Y0120894D01*
X0196114Y0120518D01*
X0194932Y0119337D01*
X0194293Y0117793D01*
X0194293Y0116122D01*
X0194932Y0114578D01*
X0196114Y0113397D01*
X0197023Y0113020D01*
X0196114Y0112644D01*
X0194932Y0111463D01*
X0194293Y0109919D01*
X0194293Y0108248D01*
X0194932Y0106704D01*
X0196114Y0105523D01*
X0197023Y0105146D01*
X0196114Y0104770D01*
X0194932Y0103589D01*
X0194293Y0102045D01*
X0194293Y0100374D01*
X0194932Y0098830D01*
X0196114Y0097649D01*
X0197023Y0097272D01*
X0196114Y0096896D01*
X0194932Y0095715D01*
X0194293Y0094171D01*
X0194293Y0092500D01*
X0194932Y0090956D01*
X0196114Y0089775D01*
X0197023Y0089398D01*
X0196114Y0089022D01*
X0194932Y0087841D01*
X0194293Y0086297D01*
X0194293Y0084626D01*
X0194932Y0083082D01*
X0196114Y0081901D01*
X0197023Y0081524D01*
X0196114Y0081148D01*
X0194932Y0079966D01*
X0194293Y0078423D01*
X0194293Y0076752D01*
X0194932Y0075208D01*
X0196114Y0074027D01*
X0197657Y0073387D01*
X0199328Y0073387D01*
X0200872Y0074027D01*
X0202053Y0075208D01*
X0202693Y0076752D01*
X0202693Y0078423D01*
X0202053Y0079966D01*
X0200872Y0081148D01*
X0199963Y0081524D01*
X0200872Y0081901D01*
X0202053Y0083082D01*
X0202227Y0083500D01*
X0206900Y0083500D01*
X0206900Y0079770D01*
X0209770Y0076900D01*
X0213830Y0076900D01*
X0216700Y0079770D01*
X0216700Y0083830D01*
X0216267Y0084263D01*
X0216704Y0084700D01*
X0221157Y0084700D01*
X0221179Y0084647D01*
X0222247Y0083579D01*
X0223644Y0083000D01*
X0229956Y0083000D01*
X0231100Y0083474D01*
X0231100Y0080126D01*
X0229956Y0080600D01*
X0223644Y0080600D01*
X0222247Y0080021D01*
X0221179Y0078953D01*
X0220600Y0077556D01*
X0220600Y0076044D01*
X0221179Y0074647D01*
X0222247Y0073579D01*
X0223644Y0073000D01*
X0229956Y0073000D01*
X0231100Y0073474D01*
X0231100Y0072104D01*
X0206296Y0047300D01*
X0205371Y0046375D01*
X0204480Y0047267D01*
X0206900Y0049688D01*
X0206900Y0051800D01*
X0201800Y0051800D01*
X0201800Y0051800D01*
X0201800Y0051800D01*
X0196700Y0051800D01*
X0196700Y0049688D01*
X0199120Y0047267D01*
X0197100Y0045247D01*
X0197100Y0044104D01*
X0175700Y0065504D01*
X0175700Y0067339D02*
X0209331Y0067339D01*
X0209770Y0066900D02*
X0206900Y0069770D01*
X0206900Y0073830D01*
X0209770Y0076700D01*
X0213830Y0076700D01*
X0216700Y0073830D01*
X0216700Y0069770D01*
X0213830Y0066900D01*
X0209770Y0066900D01*
X0207733Y0068937D02*
X0175700Y0068937D01*
X0175700Y0070536D02*
X0206900Y0070536D01*
X0206900Y0072134D02*
X0175700Y0072134D01*
X0175700Y0073733D02*
X0196823Y0073733D01*
X0194881Y0075332D02*
X0175700Y0075332D01*
X0175700Y0076930D02*
X0194293Y0076930D01*
X0194337Y0078529D02*
X0175700Y0078529D01*
X0175700Y0080127D02*
X0195093Y0080127D01*
X0196537Y0081726D02*
X0175700Y0081726D01*
X0175700Y0083324D02*
X0194832Y0083324D01*
X0194293Y0084923D02*
X0175700Y0084923D01*
X0175700Y0086521D02*
X0194386Y0086521D01*
X0195211Y0088120D02*
X0175700Y0088120D01*
X0175700Y0089718D02*
X0196251Y0089718D01*
X0194783Y0091317D02*
X0175700Y0091317D01*
X0175700Y0092915D02*
X0194293Y0092915D01*
X0194435Y0094514D02*
X0175700Y0094514D01*
X0175700Y0096112D02*
X0195330Y0096112D01*
X0196052Y0097711D02*
X0175700Y0097711D01*
X0175700Y0099309D02*
X0194734Y0099309D01*
X0194293Y0100908D02*
X0175700Y0100908D01*
X0175700Y0102506D02*
X0194484Y0102506D01*
X0195448Y0104105D02*
X0175700Y0104105D01*
X0175700Y0105703D02*
X0195933Y0105703D01*
X0194685Y0107302D02*
X0175700Y0107302D01*
X0175700Y0108900D02*
X0194293Y0108900D01*
X0194533Y0110499D02*
X0175700Y0110499D01*
X0175700Y0112097D02*
X0195567Y0112097D01*
X0195815Y0113696D02*
X0175700Y0113696D01*
X0175700Y0115294D02*
X0194636Y0115294D01*
X0194293Y0116893D02*
X0175700Y0116893D01*
X0175700Y0118491D02*
X0194582Y0118491D01*
X0195686Y0120090D02*
X0175700Y0120090D01*
X0175700Y0121688D02*
X0195696Y0121688D01*
X0194587Y0123287D02*
X0175700Y0123287D01*
X0175700Y0124885D02*
X0194293Y0124885D01*
X0194631Y0126484D02*
X0178373Y0126484D01*
X0174672Y0134476D02*
X0173300Y0134476D01*
X0173300Y0136075D02*
X0176271Y0136075D01*
X0177869Y0137673D02*
X0173300Y0137673D01*
X0173300Y0139272D02*
X0179468Y0139272D01*
X0181066Y0140870D02*
X0173300Y0140870D01*
X0173300Y0142469D02*
X0182665Y0142469D01*
X0184263Y0144068D02*
X0173300Y0144068D01*
X0173300Y0145666D02*
X0185862Y0145666D01*
X0187460Y0147265D02*
X0173300Y0147265D01*
X0173300Y0148863D02*
X0189059Y0148863D01*
X0194293Y0150462D02*
X0172343Y0150462D01*
X0170744Y0152060D02*
X0194520Y0152060D01*
X0201054Y0153659D02*
X0169146Y0153659D01*
X0168500Y0155257D02*
X0202653Y0155257D01*
X0204251Y0156856D02*
X0168500Y0156856D01*
X0168500Y0158454D02*
X0205850Y0158454D01*
X0206900Y0160053D02*
X0168500Y0160053D01*
X0168500Y0161651D02*
X0206900Y0161651D01*
X0206900Y0163250D02*
X0168500Y0163250D01*
X0168500Y0164848D02*
X0207919Y0164848D01*
X0209517Y0166447D02*
X0168500Y0166447D01*
X0168500Y0168045D02*
X0188908Y0168045D01*
X0189853Y0167100D02*
X0193747Y0167100D01*
X0196500Y0169853D01*
X0196500Y0173747D01*
X0193747Y0176500D01*
X0189853Y0176500D01*
X0187100Y0173747D01*
X0187100Y0169853D01*
X0189853Y0167100D01*
X0187310Y0169644D02*
X0168500Y0169644D01*
X0168500Y0171242D02*
X0187100Y0171242D01*
X0187100Y0172841D02*
X0168500Y0172841D01*
X0168500Y0174439D02*
X0187792Y0174439D01*
X0189391Y0176038D02*
X0168500Y0176038D01*
X0168500Y0177636D02*
X0313201Y0177636D01*
X0313201Y0179235D02*
X0168500Y0179235D01*
X0168500Y0180833D02*
X0313201Y0180833D01*
X0313201Y0182432D02*
X0168500Y0182432D01*
X0168500Y0184030D02*
X0313201Y0184030D01*
X0313201Y0185629D02*
X0168500Y0185629D01*
X0168500Y0187227D02*
X0313201Y0187227D01*
X0313201Y0188826D02*
X0168500Y0188826D01*
X0168500Y0190424D02*
X0313201Y0190424D01*
X0313201Y0192023D02*
X0168500Y0192023D01*
X0168500Y0193621D02*
X0313201Y0193621D01*
X0313201Y0195220D02*
X0244907Y0195220D01*
X0246505Y0196818D02*
X0313201Y0196818D01*
X0313201Y0198417D02*
X0248104Y0198417D01*
X0249702Y0200015D02*
X0313201Y0200015D01*
X0313201Y0201614D02*
X0251301Y0201614D01*
X0252899Y0203212D02*
X0313201Y0203212D01*
X0313201Y0204811D02*
X0254498Y0204811D01*
X0256096Y0206409D02*
X0313201Y0206409D01*
X0313201Y0208008D02*
X0257695Y0208008D01*
X0259293Y0209606D02*
X0313201Y0209606D01*
X0313201Y0211205D02*
X0260892Y0211205D01*
X0262490Y0212803D02*
X0313201Y0212803D01*
X0313201Y0214402D02*
X0264089Y0214402D01*
X0265688Y0216001D02*
X0313201Y0216001D01*
X0313201Y0217599D02*
X0267286Y0217599D01*
X0268885Y0219198D02*
X0313201Y0219198D01*
X0313201Y0220796D02*
X0270483Y0220796D01*
X0272082Y0222395D02*
X0313201Y0222395D01*
X0313201Y0223993D02*
X0273680Y0223993D01*
X0275279Y0225592D02*
X0313201Y0225592D01*
X0313201Y0227190D02*
X0276877Y0227190D01*
X0278476Y0228789D02*
X0284962Y0228789D01*
X0285695Y0228056D02*
X0287625Y0227256D01*
X0289715Y0227256D01*
X0291646Y0228056D01*
X0293123Y0229533D01*
X0293923Y0231464D01*
X0293923Y0233553D01*
X0293123Y0235484D01*
X0291646Y0236962D01*
X0289715Y0237761D01*
X0287625Y0237761D01*
X0285695Y0236962D01*
X0284217Y0235484D01*
X0283417Y0233553D01*
X0283417Y0231464D01*
X0284217Y0229533D01*
X0285695Y0228056D01*
X0283863Y0230387D02*
X0280074Y0230387D01*
X0281673Y0231986D02*
X0283417Y0231986D01*
X0283430Y0233584D02*
X0282700Y0233584D01*
X0282700Y0235183D02*
X0284092Y0235183D01*
X0282700Y0236781D02*
X0285514Y0236781D01*
X0282700Y0238380D02*
X0313201Y0238380D01*
X0313201Y0239978D02*
X0282700Y0239978D01*
X0282700Y0241577D02*
X0313201Y0241577D01*
X0313201Y0243175D02*
X0282700Y0243175D01*
X0283937Y0244774D02*
X0313201Y0244774D01*
X0313201Y0246372D02*
X0291340Y0246372D01*
X0293498Y0247971D02*
X0313201Y0247971D01*
X0313201Y0249569D02*
X0294510Y0249569D01*
X0295070Y0251168D02*
X0313201Y0251168D01*
X0313201Y0252766D02*
X0295070Y0252766D01*
X0294698Y0254365D02*
X0313201Y0254365D01*
X0313201Y0255963D02*
X0293951Y0255963D01*
X0292353Y0257562D02*
X0313201Y0257562D01*
X0313201Y0259160D02*
X0274266Y0259160D01*
X0274814Y0260759D02*
X0313201Y0260759D01*
X0313201Y0262357D02*
X0274814Y0262357D01*
X0274336Y0263956D02*
X0313201Y0263956D01*
X0313201Y0265554D02*
X0273317Y0265554D01*
X0271858Y0267153D02*
X0286353Y0267153D01*
X0285695Y0267426D02*
X0287625Y0266626D01*
X0289715Y0266626D01*
X0291646Y0267426D01*
X0293123Y0268903D01*
X0293923Y0270834D01*
X0293923Y0272924D01*
X0293123Y0274854D01*
X0291646Y0276332D01*
X0289715Y0277131D01*
X0287625Y0277131D01*
X0285695Y0276332D01*
X0284217Y0274854D01*
X0283417Y0272924D01*
X0283417Y0270834D01*
X0284217Y0268903D01*
X0285695Y0267426D01*
X0284369Y0268751D02*
X0273708Y0268751D01*
X0274498Y0270350D02*
X0283618Y0270350D01*
X0283417Y0271948D02*
X0274814Y0271948D01*
X0274767Y0273547D02*
X0283676Y0273547D01*
X0284508Y0275145D02*
X0274104Y0275145D01*
X0272757Y0276744D02*
X0286690Y0276744D01*
X0290651Y0276744D02*
X0313201Y0276744D01*
X0313201Y0278342D02*
X0004100Y0278342D01*
X0004100Y0276744D02*
X0265213Y0276744D01*
X0263866Y0275145D02*
X0004100Y0275145D01*
X0004100Y0273547D02*
X0263204Y0273547D01*
X0263156Y0271948D02*
X0004100Y0271948D01*
X0004100Y0270350D02*
X0263472Y0270350D01*
X0263347Y0268751D02*
X0004100Y0268751D01*
X0004100Y0267153D02*
X0261749Y0267153D01*
X0260150Y0265554D02*
X0004100Y0265554D01*
X0004100Y0263956D02*
X0258552Y0263956D01*
X0256953Y0262357D02*
X0004100Y0262357D01*
X0004100Y0260759D02*
X0255355Y0260759D01*
X0253756Y0259160D02*
X0004100Y0259160D01*
X0004100Y0257562D02*
X0252158Y0257562D01*
X0250559Y0255963D02*
X0004100Y0255963D01*
X0004100Y0254365D02*
X0248961Y0254365D01*
X0247362Y0252766D02*
X0004100Y0252766D01*
X0004100Y0251168D02*
X0245764Y0251168D01*
X0244165Y0249569D02*
X0004100Y0249569D01*
X0004100Y0247971D02*
X0242567Y0247971D01*
X0240968Y0246372D02*
X0004100Y0246372D01*
X0004100Y0244774D02*
X0239370Y0244774D01*
X0237771Y0243175D02*
X0004100Y0243175D01*
X0004100Y0241577D02*
X0236173Y0241577D01*
X0234574Y0239978D02*
X0004100Y0239978D01*
X0004100Y0238380D02*
X0232976Y0238380D01*
X0231377Y0236781D02*
X0004100Y0236781D01*
X0004100Y0235183D02*
X0229778Y0235183D01*
X0228180Y0233584D02*
X0004100Y0233584D01*
X0004100Y0231986D02*
X0226581Y0231986D01*
X0224983Y0230387D02*
X0004100Y0230387D01*
X0004100Y0228789D02*
X0223384Y0228789D01*
X0221786Y0227190D02*
X0004100Y0227190D01*
X0004100Y0225592D02*
X0220187Y0225592D01*
X0218589Y0223993D02*
X0004100Y0223993D01*
X0004100Y0222395D02*
X0216990Y0222395D01*
X0215500Y0220796D02*
X0004100Y0220796D01*
X0004100Y0219198D02*
X0215500Y0219198D01*
X0215500Y0217599D02*
X0004100Y0217599D01*
X0004100Y0216001D02*
X0215500Y0216001D01*
X0215500Y0214402D02*
X0004100Y0214402D01*
X0004100Y0212803D02*
X0215500Y0212803D01*
X0213977Y0211205D02*
X0209623Y0211205D01*
X0211212Y0209606D02*
X0212388Y0209606D01*
X0203977Y0211205D02*
X0199623Y0211205D01*
X0201212Y0209606D02*
X0202388Y0209606D01*
X0193977Y0211205D02*
X0189623Y0211205D01*
X0191212Y0209606D02*
X0192388Y0209606D01*
X0192050Y0204811D02*
X0191550Y0204811D01*
X0190496Y0203212D02*
X0193104Y0203212D01*
X0198299Y0201614D02*
X0168500Y0201614D01*
X0168500Y0200015D02*
X0199898Y0200015D01*
X0201496Y0198417D02*
X0168500Y0198417D01*
X0168500Y0196818D02*
X0203095Y0196818D01*
X0204693Y0195220D02*
X0168500Y0195220D01*
X0165100Y0195220D02*
X0128300Y0195220D01*
X0128300Y0196818D02*
X0165100Y0196818D01*
X0165100Y0198417D02*
X0128300Y0198417D01*
X0128300Y0200015D02*
X0165100Y0200015D01*
X0165100Y0201614D02*
X0158799Y0201614D01*
X0158930Y0201657D02*
X0158100Y0201387D01*
X0157250Y0201252D01*
X0157250Y0206350D01*
X0156350Y0206350D01*
X0156350Y0201252D01*
X0155500Y0201387D01*
X0154670Y0201657D01*
X0153891Y0202053D01*
X0153184Y0202567D01*
X0152567Y0203184D01*
X0152053Y0203891D01*
X0151657Y0204670D01*
X0151584Y0204892D01*
X0151166Y0203883D01*
X0149717Y0202434D01*
X0147824Y0201650D01*
X0145776Y0201650D01*
X0143883Y0202434D01*
X0142434Y0203883D01*
X0141800Y0205413D01*
X0141166Y0203883D01*
X0139717Y0202434D01*
X0137824Y0201650D01*
X0135776Y0201650D01*
X0133883Y0202434D01*
X0132434Y0203883D01*
X0131800Y0205413D01*
X0131166Y0203883D01*
X0129717Y0202434D01*
X0128300Y0201847D01*
X0128300Y0160696D01*
X0096466Y0128862D01*
X0096900Y0127814D01*
X0096900Y0125786D01*
X0096124Y0123911D01*
X0094689Y0122476D01*
X0093056Y0121800D01*
X0094689Y0121124D01*
X0096124Y0119689D01*
X0096900Y0117814D01*
X0096900Y0115786D01*
X0096124Y0113911D01*
X0095512Y0113300D01*
X0145696Y0113300D01*
X0147134Y0114738D01*
X0146700Y0115786D01*
X0146700Y0117814D01*
X0147476Y0119689D01*
X0148911Y0121124D01*
X0150544Y0121800D01*
X0148911Y0122476D01*
X0147476Y0123911D01*
X0146700Y0125786D01*
X0146700Y0127814D01*
X0147476Y0129689D01*
X0148911Y0131124D01*
X0150544Y0131800D01*
X0148911Y0132476D01*
X0147476Y0133911D01*
X0146700Y0135786D01*
X0146700Y0137814D01*
X0147476Y0139689D01*
X0148911Y0141124D01*
X0150544Y0141800D01*
X0148911Y0142476D01*
X0147476Y0143911D01*
X0146700Y0145786D01*
X0146700Y0147814D01*
X0147476Y0149689D01*
X0148911Y0151124D01*
X0150786Y0151900D01*
X0152814Y0151900D01*
X0154689Y0151124D01*
X0156124Y0149689D01*
X0156409Y0149000D01*
X0162408Y0149000D01*
X0162646Y0149576D01*
X0164024Y0150954D01*
X0165825Y0151700D01*
X0166296Y0151700D01*
X0165100Y0152896D01*
X0165100Y0201930D01*
X0163883Y0202434D01*
X0162434Y0203883D01*
X0162016Y0204892D01*
X0161943Y0204670D01*
X0161547Y0203891D01*
X0161033Y0203184D01*
X0160416Y0202567D01*
X0159709Y0202053D01*
X0158930Y0201657D01*
X0157250Y0201614D02*
X0156350Y0201614D01*
X0154801Y0201614D02*
X0128300Y0201614D01*
X0130496Y0203212D02*
X0133104Y0203212D01*
X0132050Y0204811D02*
X0131550Y0204811D01*
X0131212Y0209606D02*
X0132388Y0209606D01*
X0133977Y0211205D02*
X0129623Y0211205D01*
X0123977Y0211205D02*
X0119623Y0211205D01*
X0121212Y0209606D02*
X0122388Y0209606D01*
X0113977Y0211205D02*
X0109623Y0211205D01*
X0111212Y0209606D02*
X0112388Y0209606D01*
X0103977Y0211205D02*
X0099623Y0211205D01*
X0101212Y0209606D02*
X0102388Y0209606D01*
X0093977Y0211205D02*
X0089623Y0211205D01*
X0091212Y0209606D02*
X0092388Y0209606D01*
X0083977Y0211205D02*
X0079623Y0211205D01*
X0081212Y0209606D02*
X0082388Y0209606D01*
X0073977Y0211205D02*
X0069623Y0211205D01*
X0071212Y0209606D02*
X0072388Y0209606D01*
X0063977Y0211205D02*
X0004100Y0211205D01*
X0004100Y0209606D02*
X0062388Y0209606D01*
X0061726Y0208008D02*
X0004100Y0208008D01*
X0004100Y0206409D02*
X0061650Y0206409D01*
X0062050Y0204811D02*
X0004100Y0204811D01*
X0004100Y0203212D02*
X0063104Y0203212D01*
X0065500Y0201614D02*
X0004100Y0201614D01*
X0004100Y0200015D02*
X0065500Y0200015D01*
X0065500Y0198417D02*
X0004100Y0198417D01*
X0004100Y0196818D02*
X0065500Y0196818D01*
X0065500Y0195220D02*
X0004100Y0195220D01*
X0004100Y0193621D02*
X0065500Y0193621D01*
X0065500Y0192023D02*
X0004100Y0192023D01*
X0004100Y0190424D02*
X0065500Y0190424D01*
X0065500Y0188826D02*
X0004100Y0188826D01*
X0004100Y0187227D02*
X0065500Y0187227D01*
X0065500Y0185629D02*
X0004100Y0185629D01*
X0004100Y0184030D02*
X0065500Y0184030D01*
X0065500Y0182432D02*
X0004100Y0182432D01*
X0004100Y0180833D02*
X0065500Y0180833D01*
X0065500Y0179235D02*
X0004100Y0179235D01*
X0004100Y0177636D02*
X0065500Y0177636D01*
X0065500Y0176038D02*
X0004100Y0176038D01*
X0004100Y0174439D02*
X0065500Y0174439D01*
X0065500Y0172841D02*
X0004100Y0172841D01*
X0004100Y0171242D02*
X0065500Y0171242D01*
X0065500Y0169644D02*
X0004100Y0169644D01*
X0004100Y0168045D02*
X0065500Y0168045D01*
X0065500Y0166447D02*
X0004100Y0166447D01*
X0004100Y0164848D02*
X0065500Y0164848D01*
X0065500Y0163250D02*
X0004100Y0163250D01*
X0004100Y0161651D02*
X0065500Y0161651D01*
X0065500Y0160053D02*
X0004100Y0160053D01*
X0004100Y0158454D02*
X0065500Y0158454D01*
X0065500Y0156856D02*
X0004100Y0156856D01*
X0004100Y0155257D02*
X0065500Y0155257D01*
X0065500Y0153659D02*
X0004100Y0153659D01*
X0004100Y0152060D02*
X0065500Y0152060D01*
X0065500Y0150462D02*
X0004100Y0150462D01*
X0004100Y0148863D02*
X0065500Y0148863D01*
X0065500Y0147265D02*
X0004100Y0147265D01*
X0004100Y0145666D02*
X0028454Y0145666D01*
X0028911Y0146124D02*
X0027476Y0144689D01*
X0026700Y0142814D01*
X0026700Y0140786D01*
X0027476Y0138911D01*
X0028911Y0137476D01*
X0030544Y0136800D01*
X0028911Y0136124D01*
X0027476Y0134689D01*
X0026700Y0132814D01*
X0026700Y0130786D01*
X0027476Y0128911D01*
X0028911Y0127476D01*
X0029600Y0127191D01*
X0029600Y0075889D01*
X0032292Y0073197D01*
X0032100Y0072735D01*
X0032100Y0070865D01*
X0032816Y0069138D01*
X0034138Y0067816D01*
X0035865Y0067100D01*
X0037735Y0067100D01*
X0039462Y0067816D01*
X0040784Y0069138D01*
X0041500Y0070865D01*
X0041500Y0072735D01*
X0040784Y0074462D01*
X0039462Y0075784D01*
X0037735Y0076500D01*
X0035865Y0076500D01*
X0035403Y0076308D01*
X0034000Y0077711D01*
X0034000Y0127191D01*
X0034689Y0127476D01*
X0036124Y0128911D01*
X0036900Y0130786D01*
X0036900Y0132814D01*
X0036124Y0134689D01*
X0034689Y0136124D01*
X0033056Y0136800D01*
X0034689Y0137476D01*
X0036124Y0138911D01*
X0036900Y0140786D01*
X0036900Y0142814D01*
X0036124Y0144689D01*
X0034689Y0146124D01*
X0032814Y0146900D01*
X0030786Y0146900D01*
X0028911Y0146124D01*
X0027219Y0144068D02*
X0004100Y0144068D01*
X0004100Y0142469D02*
X0026700Y0142469D01*
X0026700Y0140870D02*
X0004100Y0140870D01*
X0004100Y0139272D02*
X0027327Y0139272D01*
X0028714Y0137673D02*
X0004100Y0137673D01*
X0004100Y0136075D02*
X0028862Y0136075D01*
X0027388Y0134476D02*
X0004100Y0134476D01*
X0004100Y0132878D02*
X0026726Y0132878D01*
X0026700Y0131279D02*
X0004100Y0131279D01*
X0004100Y0129681D02*
X0027158Y0129681D01*
X0028305Y0128082D02*
X0004100Y0128082D01*
X0004100Y0126484D02*
X0029600Y0126484D01*
X0029600Y0124885D02*
X0004100Y0124885D01*
X0004100Y0123287D02*
X0029600Y0123287D01*
X0029600Y0121688D02*
X0004100Y0121688D01*
X0004100Y0120090D02*
X0029600Y0120090D01*
X0029600Y0118491D02*
X0004100Y0118491D01*
X0004100Y0116893D02*
X0029600Y0116893D01*
X0029600Y0115294D02*
X0004100Y0115294D01*
X0004100Y0113696D02*
X0029600Y0113696D01*
X0029600Y0112097D02*
X0004100Y0112097D01*
X0004100Y0110499D02*
X0029600Y0110499D01*
X0029600Y0108900D02*
X0004100Y0108900D01*
X0004100Y0107302D02*
X0029600Y0107302D01*
X0029600Y0105703D02*
X0004100Y0105703D01*
X0004100Y0104105D02*
X0029600Y0104105D01*
X0029600Y0102506D02*
X0004100Y0102506D01*
X0004100Y0100908D02*
X0029600Y0100908D01*
X0029600Y0099309D02*
X0004100Y0099309D01*
X0004100Y0097711D02*
X0029600Y0097711D01*
X0029600Y0096112D02*
X0004100Y0096112D01*
X0004100Y0094514D02*
X0029600Y0094514D01*
X0029600Y0092915D02*
X0004100Y0092915D01*
X0004100Y0091317D02*
X0029600Y0091317D01*
X0029600Y0089718D02*
X0004100Y0089718D01*
X0004100Y0088120D02*
X0029600Y0088120D01*
X0029600Y0086521D02*
X0004100Y0086521D01*
X0004100Y0084923D02*
X0029600Y0084923D01*
X0029600Y0083324D02*
X0004100Y0083324D01*
X0004100Y0081726D02*
X0029600Y0081726D01*
X0029600Y0080127D02*
X0004100Y0080127D01*
X0004100Y0078529D02*
X0029600Y0078529D01*
X0029600Y0076930D02*
X0004100Y0076930D01*
X0004100Y0075332D02*
X0023685Y0075332D01*
X0029915Y0075332D02*
X0030157Y0075332D01*
X0031087Y0073733D02*
X0031756Y0073733D01*
X0031500Y0072134D02*
X0032100Y0072134D01*
X0032236Y0070536D02*
X0031364Y0070536D01*
X0030584Y0068937D02*
X0033016Y0068937D01*
X0035288Y0067339D02*
X0028312Y0067339D01*
X0036800Y0071800D02*
X0031800Y0076800D01*
X0031800Y0131800D01*
X0035295Y0128082D02*
X0045878Y0128082D01*
X0045100Y0127304D02*
X0045100Y0120474D01*
X0043000Y0118374D01*
X0043000Y0115226D01*
X0043111Y0115115D01*
X0042235Y0114239D01*
X0040874Y0115600D01*
X0037726Y0115600D01*
X0035500Y0113374D01*
X0035500Y0110226D01*
X0037726Y0108000D01*
X0040874Y0108000D01*
X0041500Y0108626D01*
X0041500Y0104896D01*
X0042496Y0103900D01*
X0045100Y0101296D01*
X0045100Y0095076D01*
X0044434Y0095742D01*
X0042725Y0096450D01*
X0040875Y0096450D01*
X0039166Y0095742D01*
X0037858Y0094434D01*
X0037150Y0092725D01*
X0037150Y0090875D01*
X0037858Y0089166D01*
X0039166Y0087858D01*
X0040875Y0087150D01*
X0042725Y0087150D01*
X0044434Y0087858D01*
X0045100Y0088524D01*
X0045100Y0076183D01*
X0044138Y0075784D01*
X0042816Y0074462D01*
X0042100Y0072735D01*
X0042100Y0070865D01*
X0042816Y0069138D01*
X0044138Y0067816D01*
X0045865Y0067100D01*
X0047735Y0067100D01*
X0049462Y0067816D01*
X0050784Y0069138D01*
X0051500Y0070865D01*
X0051500Y0072735D01*
X0050784Y0074462D01*
X0049462Y0075784D01*
X0048500Y0076183D01*
X0048500Y0087958D01*
X0048510Y0087948D01*
X0049153Y0087481D01*
X0049861Y0087120D01*
X0050617Y0086874D01*
X0051403Y0086750D01*
X0051800Y0086750D01*
X0052197Y0086750D01*
X0052983Y0086874D01*
X0053739Y0087120D01*
X0054447Y0087481D01*
X0055090Y0087948D01*
X0055652Y0088510D01*
X0056119Y0089153D01*
X0056480Y0089861D01*
X0056726Y0090617D01*
X0056850Y0091403D01*
X0056850Y0091800D01*
X0056850Y0092197D01*
X0056726Y0092983D01*
X0056480Y0093739D01*
X0056119Y0094447D01*
X0055652Y0095090D01*
X0055090Y0095652D01*
X0054447Y0096119D01*
X0053739Y0096480D01*
X0052983Y0096726D01*
X0052197Y0096850D01*
X0051800Y0096850D01*
X0051800Y0091800D01*
X0051800Y0091800D01*
X0056850Y0091800D01*
X0051800Y0091800D01*
X0051800Y0091800D01*
X0051800Y0096850D01*
X0051403Y0096850D01*
X0050617Y0096726D01*
X0049861Y0096480D01*
X0049153Y0096119D01*
X0048510Y0095652D01*
X0048500Y0095642D01*
X0048500Y0102600D01*
X0048540Y0102600D01*
X0051000Y0105060D01*
X0051000Y0106800D01*
X0051000Y0108540D01*
X0048540Y0111000D01*
X0046800Y0111000D01*
X0046800Y0106800D01*
X0046800Y0106800D01*
X0051000Y0106800D01*
X0046800Y0106800D01*
X0046800Y0106800D01*
X0046800Y0111000D01*
X0045060Y0111000D01*
X0044900Y0110840D01*
X0044900Y0112096D01*
X0045804Y0113000D01*
X0048374Y0113000D01*
X0050600Y0115226D01*
X0050600Y0118374D01*
X0048500Y0120474D01*
X0048500Y0125896D01*
X0050082Y0127478D01*
X0050875Y0127150D01*
X0052725Y0127150D01*
X0054434Y0127858D01*
X0055742Y0129166D01*
X0056450Y0130875D01*
X0056450Y0132725D01*
X0055742Y0134434D01*
X0054434Y0135742D01*
X0052725Y0136450D01*
X0050875Y0136450D01*
X0049166Y0135742D01*
X0047858Y0134434D01*
X0047150Y0132725D01*
X0047150Y0130875D01*
X0047595Y0129800D01*
X0045100Y0127304D01*
X0045100Y0126484D02*
X0034000Y0126484D01*
X0034000Y0124885D02*
X0045100Y0124885D01*
X0045100Y0123287D02*
X0034000Y0123287D01*
X0034000Y0121688D02*
X0045100Y0121688D01*
X0044716Y0120090D02*
X0034000Y0120090D01*
X0034000Y0118491D02*
X0043117Y0118491D01*
X0043000Y0116893D02*
X0034000Y0116893D01*
X0034000Y0115294D02*
X0037420Y0115294D01*
X0035822Y0113696D02*
X0034000Y0113696D01*
X0034000Y0112097D02*
X0035500Y0112097D01*
X0035500Y0110499D02*
X0034000Y0110499D01*
X0034000Y0108900D02*
X0036826Y0108900D01*
X0034000Y0107302D02*
X0041500Y0107302D01*
X0041500Y0105703D02*
X0034000Y0105703D01*
X0034000Y0104105D02*
X0042291Y0104105D01*
X0043890Y0102506D02*
X0034000Y0102506D01*
X0034000Y0100908D02*
X0045100Y0100908D01*
X0045100Y0099309D02*
X0034000Y0099309D01*
X0034000Y0097711D02*
X0045100Y0097711D01*
X0045100Y0096112D02*
X0043541Y0096112D01*
X0040059Y0096112D02*
X0034000Y0096112D01*
X0034000Y0094514D02*
X0037938Y0094514D01*
X0037229Y0092915D02*
X0034000Y0092915D01*
X0034000Y0091317D02*
X0037150Y0091317D01*
X0037629Y0089718D02*
X0034000Y0089718D01*
X0034000Y0088120D02*
X0038904Y0088120D01*
X0034000Y0086521D02*
X0045100Y0086521D01*
X0045100Y0084923D02*
X0034000Y0084923D01*
X0034000Y0083324D02*
X0045100Y0083324D01*
X0045100Y0081726D02*
X0034000Y0081726D01*
X0034000Y0080127D02*
X0045100Y0080127D01*
X0045100Y0078529D02*
X0034000Y0078529D01*
X0034781Y0076930D02*
X0045100Y0076930D01*
X0043685Y0075332D02*
X0039915Y0075332D01*
X0041087Y0073733D02*
X0042513Y0073733D01*
X0042100Y0072134D02*
X0041500Y0072134D01*
X0041364Y0070536D02*
X0042236Y0070536D01*
X0043016Y0068937D02*
X0040584Y0068937D01*
X0038312Y0067339D02*
X0045288Y0067339D01*
X0048312Y0067339D02*
X0058335Y0067339D01*
X0059933Y0068937D02*
X0050584Y0068937D01*
X0051364Y0070536D02*
X0061532Y0070536D01*
X0063130Y0072134D02*
X0051500Y0072134D01*
X0051087Y0073733D02*
X0064729Y0073733D01*
X0066327Y0075332D02*
X0049915Y0075332D01*
X0048500Y0076930D02*
X0067926Y0076930D01*
X0069524Y0078529D02*
X0048500Y0078529D01*
X0048500Y0080127D02*
X0071123Y0080127D01*
X0072721Y0081726D02*
X0048500Y0081726D01*
X0048500Y0083324D02*
X0073346Y0083324D01*
X0072274Y0084923D02*
X0048500Y0084923D01*
X0048500Y0086521D02*
X0071900Y0086521D01*
X0072043Y0088120D02*
X0055261Y0088120D01*
X0056407Y0089718D02*
X0072788Y0089718D01*
X0074900Y0091317D02*
X0056836Y0091317D01*
X0056736Y0092915D02*
X0073755Y0092915D01*
X0072443Y0094514D02*
X0056071Y0094514D01*
X0054456Y0096112D02*
X0071900Y0096112D01*
X0071900Y0097711D02*
X0048500Y0097711D01*
X0048500Y0099309D02*
X0072536Y0099309D01*
X0073688Y0100908D02*
X0048500Y0100908D01*
X0048500Y0102506D02*
X0072090Y0102506D01*
X0070491Y0104105D02*
X0050044Y0104105D01*
X0051000Y0105703D02*
X0068893Y0105703D01*
X0067294Y0107302D02*
X0051000Y0107302D01*
X0050639Y0108900D02*
X0065696Y0108900D01*
X0065500Y0110499D02*
X0049041Y0110499D01*
X0046800Y0110499D02*
X0046800Y0110499D01*
X0046800Y0108900D02*
X0046800Y0108900D01*
X0046800Y0107302D02*
X0046800Y0107302D01*
X0044901Y0112097D02*
X0065500Y0112097D01*
X0065500Y0113696D02*
X0049070Y0113696D01*
X0050600Y0115294D02*
X0065500Y0115294D01*
X0065500Y0116893D02*
X0050600Y0116893D01*
X0050483Y0118491D02*
X0065500Y0118491D01*
X0065500Y0120090D02*
X0048884Y0120090D01*
X0048500Y0121688D02*
X0065500Y0121688D01*
X0065500Y0123287D02*
X0048500Y0123287D01*
X0048500Y0124885D02*
X0065500Y0124885D01*
X0065500Y0126484D02*
X0049088Y0126484D01*
X0047477Y0129681D02*
X0036442Y0129681D01*
X0036900Y0131279D02*
X0047150Y0131279D01*
X0047213Y0132878D02*
X0036874Y0132878D01*
X0036212Y0134476D02*
X0047900Y0134476D01*
X0049970Y0136075D02*
X0034738Y0136075D01*
X0034886Y0137673D02*
X0049611Y0137673D01*
X0049166Y0137858D02*
X0050875Y0137150D01*
X0052725Y0137150D01*
X0054434Y0137858D01*
X0055742Y0139166D01*
X0056450Y0140875D01*
X0056450Y0142725D01*
X0055742Y0144434D01*
X0054434Y0145742D01*
X0052725Y0146450D01*
X0050875Y0146450D01*
X0049166Y0145742D01*
X0047858Y0144434D01*
X0047150Y0142725D01*
X0047150Y0140875D01*
X0047858Y0139166D01*
X0049166Y0137858D01*
X0047814Y0139272D02*
X0036273Y0139272D01*
X0036900Y0140870D02*
X0047152Y0140870D01*
X0047150Y0142469D02*
X0036900Y0142469D01*
X0036381Y0144068D02*
X0047706Y0144068D01*
X0049090Y0145666D02*
X0035146Y0145666D01*
X0053989Y0137673D02*
X0065500Y0137673D01*
X0065500Y0136075D02*
X0053630Y0136075D01*
X0055700Y0134476D02*
X0065500Y0134476D01*
X0065500Y0132878D02*
X0056387Y0132878D01*
X0056450Y0131279D02*
X0065500Y0131279D01*
X0065500Y0129681D02*
X0055955Y0129681D01*
X0054658Y0128082D02*
X0065500Y0128082D01*
X0065500Y0139272D02*
X0055786Y0139272D01*
X0056448Y0140870D02*
X0065500Y0140870D01*
X0065500Y0142469D02*
X0056450Y0142469D01*
X0055894Y0144068D02*
X0065500Y0144068D01*
X0065500Y0145666D02*
X0054510Y0145666D01*
X0076800Y0146800D02*
X0087000Y0146800D01*
X0091800Y0146800D01*
X0091800Y0136800D02*
X0076800Y0136800D01*
X0076800Y0126800D02*
X0091800Y0126800D01*
X0096527Y0124885D02*
X0147073Y0124885D01*
X0146700Y0126484D02*
X0096900Y0126484D01*
X0096789Y0128082D02*
X0146811Y0128082D01*
X0147473Y0129681D02*
X0097285Y0129681D01*
X0098884Y0131279D02*
X0149287Y0131279D01*
X0148510Y0132878D02*
X0100482Y0132878D01*
X0102081Y0134476D02*
X0147242Y0134476D01*
X0146700Y0136075D02*
X0103679Y0136075D01*
X0105278Y0137673D02*
X0146700Y0137673D01*
X0147304Y0139272D02*
X0106876Y0139272D01*
X0108475Y0140870D02*
X0148658Y0140870D01*
X0148929Y0142469D02*
X0110073Y0142469D01*
X0111672Y0144068D02*
X0147412Y0144068D01*
X0146749Y0145666D02*
X0113270Y0145666D01*
X0114869Y0147265D02*
X0146700Y0147265D01*
X0147134Y0148863D02*
X0116467Y0148863D01*
X0118066Y0150462D02*
X0148249Y0150462D01*
X0151800Y0146800D02*
X0166800Y0146800D01*
X0163532Y0150462D02*
X0155351Y0150462D01*
X0165100Y0153659D02*
X0121263Y0153659D01*
X0122861Y0155257D02*
X0165100Y0155257D01*
X0165100Y0156856D02*
X0124460Y0156856D01*
X0126058Y0158454D02*
X0165100Y0158454D01*
X0165100Y0160053D02*
X0127657Y0160053D01*
X0128300Y0161651D02*
X0165100Y0161651D01*
X0165100Y0163250D02*
X0128300Y0163250D01*
X0128300Y0164848D02*
X0165100Y0164848D01*
X0165100Y0166447D02*
X0128300Y0166447D01*
X0128300Y0168045D02*
X0165100Y0168045D01*
X0165100Y0169644D02*
X0128300Y0169644D01*
X0128300Y0171242D02*
X0165100Y0171242D01*
X0165100Y0172841D02*
X0128300Y0172841D01*
X0128300Y0174439D02*
X0165100Y0174439D01*
X0165100Y0176038D02*
X0128300Y0176038D01*
X0128300Y0177636D02*
X0165100Y0177636D01*
X0165100Y0179235D02*
X0128300Y0179235D01*
X0128300Y0180833D02*
X0165100Y0180833D01*
X0165100Y0182432D02*
X0128300Y0182432D01*
X0128300Y0184030D02*
X0165100Y0184030D01*
X0165100Y0185629D02*
X0128300Y0185629D01*
X0128300Y0187227D02*
X0165100Y0187227D01*
X0165100Y0188826D02*
X0128300Y0188826D01*
X0128300Y0190424D02*
X0165100Y0190424D01*
X0165100Y0192023D02*
X0128300Y0192023D01*
X0128300Y0193621D02*
X0165100Y0193621D01*
X0163104Y0203212D02*
X0161054Y0203212D01*
X0161989Y0204811D02*
X0162050Y0204811D01*
X0162388Y0209606D02*
X0161599Y0209606D01*
X0160179Y0211205D02*
X0163977Y0211205D01*
X0169623Y0211205D02*
X0173977Y0211205D01*
X0172388Y0209606D02*
X0171212Y0209606D01*
X0171550Y0204811D02*
X0172050Y0204811D01*
X0173104Y0203212D02*
X0170496Y0203212D01*
X0180496Y0203212D02*
X0183104Y0203212D01*
X0182050Y0204811D02*
X0181550Y0204811D01*
X0181212Y0209606D02*
X0182388Y0209606D01*
X0183977Y0211205D02*
X0179623Y0211205D01*
X0157250Y0211205D02*
X0156350Y0211205D01*
X0156350Y0209606D02*
X0157250Y0209606D01*
X0157250Y0208008D02*
X0156350Y0208008D01*
X0156350Y0204811D02*
X0157250Y0204811D01*
X0157250Y0203212D02*
X0156350Y0203212D01*
X0152546Y0203212D02*
X0150496Y0203212D01*
X0151550Y0204811D02*
X0151611Y0204811D01*
X0152001Y0209606D02*
X0151212Y0209606D01*
X0149623Y0211205D02*
X0153421Y0211205D01*
X0143977Y0211205D02*
X0139623Y0211205D01*
X0141212Y0209606D02*
X0142388Y0209606D01*
X0142050Y0204811D02*
X0141550Y0204811D01*
X0140496Y0203212D02*
X0143104Y0203212D01*
X0165936Y0152060D02*
X0119664Y0152060D01*
X0095499Y0123287D02*
X0148101Y0123287D01*
X0150275Y0121688D02*
X0093325Y0121688D01*
X0095723Y0120090D02*
X0147877Y0120090D01*
X0146980Y0118491D02*
X0096620Y0118491D01*
X0096900Y0116893D02*
X0146700Y0116893D01*
X0146903Y0115294D02*
X0096697Y0115294D01*
X0095908Y0113696D02*
X0146092Y0113696D01*
X0151800Y0116800D02*
X0166800Y0116800D01*
X0166800Y0106800D02*
X0151800Y0106800D01*
X0151800Y0096800D02*
X0166800Y0096800D01*
X0166800Y0086800D02*
X0151800Y0086800D01*
X0145696Y0079900D02*
X0147017Y0078579D01*
X0146700Y0077814D01*
X0146700Y0075786D01*
X0147476Y0073911D01*
X0148911Y0072476D01*
X0150544Y0071800D01*
X0148911Y0071124D01*
X0147476Y0069689D01*
X0146700Y0067814D01*
X0146700Y0065786D01*
X0147476Y0063911D01*
X0148911Y0062476D01*
X0150544Y0061800D01*
X0148911Y0061124D01*
X0147476Y0059689D01*
X0147067Y0058700D01*
X0096533Y0058700D01*
X0096124Y0059689D01*
X0094689Y0061124D01*
X0093563Y0061590D01*
X0093911Y0061703D01*
X0094683Y0062096D01*
X0095383Y0062605D01*
X0095995Y0063217D01*
X0096504Y0063917D01*
X0096897Y0064689D01*
X0097165Y0065512D01*
X0097300Y0066367D01*
X0097300Y0066600D01*
X0092000Y0066600D01*
X0092000Y0067000D01*
X0097300Y0067000D01*
X0097300Y0067233D01*
X0097165Y0068088D01*
X0096897Y0068911D01*
X0096504Y0069683D01*
X0095995Y0070383D01*
X0095383Y0070995D01*
X0094683Y0071504D01*
X0093911Y0071897D01*
X0093563Y0072010D01*
X0094689Y0072476D01*
X0096124Y0073911D01*
X0096900Y0075786D01*
X0096900Y0077814D01*
X0096124Y0079689D01*
X0095912Y0079900D01*
X0145696Y0079900D01*
X0146996Y0078529D02*
X0096604Y0078529D01*
X0096900Y0076930D02*
X0146700Y0076930D01*
X0146888Y0075332D02*
X0096712Y0075332D01*
X0095945Y0073733D02*
X0147654Y0073733D01*
X0149737Y0072134D02*
X0093863Y0072134D01*
X0095842Y0070536D02*
X0148323Y0070536D01*
X0147165Y0068937D02*
X0096884Y0068937D01*
X0097283Y0067339D02*
X0146700Y0067339D01*
X0146719Y0065740D02*
X0097201Y0065740D01*
X0096618Y0064142D02*
X0147381Y0064142D01*
X0148844Y0062543D02*
X0095298Y0062543D01*
X0094868Y0060945D02*
X0148732Y0060945D01*
X0147335Y0059346D02*
X0096265Y0059346D01*
X0096389Y0054551D02*
X0147211Y0054551D01*
X0148435Y0052952D02*
X0095165Y0052952D01*
X0094133Y0051354D02*
X0149467Y0051354D01*
X0147543Y0049755D02*
X0096057Y0049755D01*
X0096758Y0048157D02*
X0146842Y0048157D01*
X0146700Y0046558D02*
X0096900Y0046558D01*
X0096558Y0044960D02*
X0147042Y0044960D01*
X0148026Y0043361D02*
X0095574Y0043361D01*
X0093146Y0041763D02*
X0147383Y0041763D01*
X0146700Y0040164D02*
X0095648Y0040164D01*
X0096589Y0038566D02*
X0146700Y0038566D01*
X0146700Y0036967D02*
X0096900Y0036967D01*
X0096727Y0035369D02*
X0146700Y0035369D01*
X0146700Y0033770D02*
X0095983Y0033770D01*
X0093953Y0032172D02*
X0147048Y0032172D01*
X0151800Y0036800D02*
X0166800Y0036800D01*
X0171372Y0038566D02*
X0182830Y0038566D01*
X0181232Y0040164D02*
X0170365Y0040164D01*
X0170291Y0043361D02*
X0178035Y0043361D01*
X0179633Y0041763D02*
X0156217Y0041763D01*
X0155574Y0043361D02*
X0163309Y0043361D01*
X0163235Y0040164D02*
X0156900Y0040164D01*
X0156900Y0033770D02*
X0162900Y0033770D01*
X0165169Y0032172D02*
X0156552Y0032172D01*
X0168431Y0032172D02*
X0189224Y0032172D01*
X0187626Y0033770D02*
X0170700Y0033770D01*
X0171511Y0035369D02*
X0186027Y0035369D01*
X0184429Y0036967D02*
X0171700Y0036967D01*
X0171341Y0044960D02*
X0176436Y0044960D01*
X0174838Y0046558D02*
X0171700Y0046558D01*
X0171542Y0048157D02*
X0173239Y0048157D01*
X0171640Y0049755D02*
X0170774Y0049755D01*
X0171100Y0051354D02*
X0168610Y0051354D01*
X0169882Y0052952D02*
X0171100Y0052952D01*
X0166800Y0056800D02*
X0151800Y0056800D01*
X0155165Y0052952D02*
X0163718Y0052952D01*
X0164990Y0051354D02*
X0154133Y0051354D01*
X0156057Y0049755D02*
X0162826Y0049755D01*
X0162428Y0054551D02*
X0156389Y0054551D01*
X0151800Y0046800D02*
X0166800Y0046800D01*
X0180259Y0060945D02*
X0197100Y0060945D01*
X0197100Y0059346D02*
X0181858Y0059346D01*
X0183456Y0057748D02*
X0197705Y0057748D01*
X0198937Y0056149D02*
X0185055Y0056149D01*
X0186653Y0054551D02*
X0197338Y0054551D01*
X0196700Y0052952D02*
X0188252Y0052952D01*
X0189850Y0051354D02*
X0196700Y0051354D01*
X0196700Y0049755D02*
X0191449Y0049755D01*
X0193047Y0048157D02*
X0198231Y0048157D01*
X0198412Y0046558D02*
X0194646Y0046558D01*
X0196244Y0044960D02*
X0197100Y0044960D01*
X0205188Y0046558D02*
X0205554Y0046558D01*
X0205369Y0048157D02*
X0207153Y0048157D01*
X0206900Y0049755D02*
X0208751Y0049755D01*
X0210350Y0051354D02*
X0206900Y0051354D01*
X0206900Y0052952D02*
X0211948Y0052952D01*
X0213547Y0054551D02*
X0206262Y0054551D01*
X0197397Y0062543D02*
X0178661Y0062543D01*
X0177062Y0064142D02*
X0198995Y0064142D01*
X0200163Y0073733D02*
X0206900Y0073733D01*
X0208402Y0075332D02*
X0202105Y0075332D01*
X0202693Y0076930D02*
X0209740Y0076930D01*
X0208142Y0078529D02*
X0202649Y0078529D01*
X0201893Y0080127D02*
X0206900Y0080127D01*
X0206900Y0081726D02*
X0200449Y0081726D01*
X0202154Y0083324D02*
X0206900Y0083324D01*
X0213860Y0076930D02*
X0220600Y0076930D01*
X0220895Y0075332D02*
X0215198Y0075332D01*
X0216700Y0073733D02*
X0222093Y0073733D01*
X0216700Y0072134D02*
X0231100Y0072134D01*
X0229532Y0070536D02*
X0216700Y0070536D01*
X0215867Y0068937D02*
X0227933Y0068937D01*
X0226335Y0067339D02*
X0214269Y0067339D01*
X0215458Y0078529D02*
X0221003Y0078529D01*
X0222502Y0080127D02*
X0216700Y0080127D01*
X0216700Y0081726D02*
X0231100Y0081726D01*
X0231100Y0083324D02*
X0230738Y0083324D01*
X0231098Y0080127D02*
X0231100Y0080127D01*
X0222862Y0083324D02*
X0216700Y0083324D01*
X0195804Y0128082D02*
X0190487Y0128082D01*
X0192085Y0129681D02*
X0195578Y0129681D01*
X0194538Y0131279D02*
X0193684Y0131279D01*
X0166800Y0126800D02*
X0151800Y0126800D01*
X0151800Y0136800D02*
X0166800Y0136800D01*
X0194692Y0168045D02*
X0198908Y0168045D01*
X0197310Y0169644D02*
X0196290Y0169644D01*
X0196500Y0171242D02*
X0197100Y0171242D01*
X0197100Y0172841D02*
X0196500Y0172841D01*
X0195808Y0174439D02*
X0197792Y0174439D01*
X0199391Y0176038D02*
X0194209Y0176038D01*
X0204209Y0176038D02*
X0219391Y0176038D01*
X0217792Y0174439D02*
X0205808Y0174439D01*
X0206290Y0169644D02*
X0217310Y0169644D01*
X0218908Y0168045D02*
X0204692Y0168045D01*
X0214083Y0166447D02*
X0219800Y0166447D01*
X0218201Y0164848D02*
X0215681Y0164848D01*
X0216700Y0163250D02*
X0217100Y0163250D01*
X0217100Y0161651D02*
X0216700Y0161651D01*
X0216700Y0160053D02*
X0217100Y0160053D01*
X0262102Y0139272D02*
X0267398Y0139272D01*
X0268997Y0137673D02*
X0262951Y0137673D01*
X0263000Y0136075D02*
X0269145Y0136075D01*
X0267547Y0134476D02*
X0262250Y0134476D01*
X0261693Y0129681D02*
X0266989Y0129681D01*
X0268588Y0128082D02*
X0262782Y0128082D01*
X0263000Y0126484D02*
X0269554Y0126484D01*
X0267956Y0124885D02*
X0262520Y0124885D01*
X0260648Y0123287D02*
X0266900Y0123287D01*
X0274046Y0126484D02*
X0274312Y0126484D01*
X0275644Y0124885D02*
X0275910Y0124885D01*
X0276700Y0123287D02*
X0281201Y0123287D01*
X0282311Y0121688D02*
X0276700Y0121688D01*
X0276700Y0120090D02*
X0282300Y0120090D01*
X0287914Y0120090D02*
X0289900Y0120090D01*
X0289900Y0121688D02*
X0287904Y0121688D01*
X0289013Y0123287D02*
X0289900Y0123287D01*
X0289900Y0124885D02*
X0289307Y0124885D01*
X0288969Y0126484D02*
X0289900Y0126484D01*
X0289900Y0128082D02*
X0287796Y0128082D01*
X0288022Y0129681D02*
X0289900Y0129681D01*
X0289900Y0131279D02*
X0289062Y0131279D01*
X0289307Y0132878D02*
X0289900Y0132878D01*
X0289900Y0134476D02*
X0288920Y0134476D01*
X0289900Y0136075D02*
X0287677Y0136075D01*
X0288141Y0137673D02*
X0289900Y0137673D01*
X0289900Y0139272D02*
X0289112Y0139272D01*
X0289307Y0140870D02*
X0289900Y0140870D01*
X0289900Y0142469D02*
X0288870Y0142469D01*
X0289900Y0144068D02*
X0287559Y0144068D01*
X0288259Y0145666D02*
X0289900Y0145666D01*
X0289900Y0147265D02*
X0289161Y0147265D01*
X0289307Y0148863D02*
X0289900Y0148863D01*
X0289900Y0150462D02*
X0288821Y0150462D01*
X0289900Y0152060D02*
X0287375Y0152060D01*
X0280907Y0148863D02*
X0277141Y0148863D01*
X0278740Y0147265D02*
X0281054Y0147265D01*
X0280338Y0145666D02*
X0281955Y0145666D01*
X0281937Y0144068D02*
X0282655Y0144068D01*
X0280325Y0140870D02*
X0276700Y0140870D01*
X0276700Y0142469D02*
X0278727Y0142469D01*
X0277128Y0144068D02*
X0276462Y0144068D01*
X0275530Y0145666D02*
X0274864Y0145666D01*
X0276532Y0139272D02*
X0281103Y0139272D01*
X0282073Y0137673D02*
X0278131Y0137673D01*
X0279729Y0136075D02*
X0282537Y0136075D01*
X0281152Y0131279D02*
X0276700Y0131279D01*
X0276700Y0132878D02*
X0278118Y0132878D01*
X0276519Y0134476D02*
X0276053Y0134476D01*
X0274921Y0136075D02*
X0274455Y0136075D01*
X0276611Y0129681D02*
X0282192Y0129681D01*
X0282418Y0128082D02*
X0277522Y0128082D01*
X0289018Y0118491D02*
X0289900Y0118491D01*
X0289900Y0116893D02*
X0289307Y0116893D01*
X0289290Y0115294D02*
X0288964Y0115294D01*
X0280900Y0040164D02*
X0267040Y0040164D01*
X0268638Y0038566D02*
X0280900Y0038566D01*
X0280900Y0036967D02*
X0270237Y0036967D01*
X0271835Y0035369D02*
X0280900Y0035369D01*
X0280900Y0033770D02*
X0273434Y0033770D01*
X0275032Y0032172D02*
X0280900Y0032172D01*
X0280900Y0030573D02*
X0279956Y0030573D01*
X0281555Y0028975D02*
X0282045Y0028975D01*
X0281900Y0027376D02*
X0281700Y0027376D01*
X0282385Y0022581D02*
X0284090Y0022581D01*
X0298324Y0009793D02*
X0020276Y0009793D01*
X0019614Y0008194D02*
X0298986Y0008194D01*
X0299843Y0006596D02*
X0018757Y0006596D01*
X0017158Y0004997D02*
X0301442Y0004997D01*
X0201412Y0019384D02*
X0056250Y0019384D01*
X0054830Y0020982D02*
X0199814Y0020982D01*
X0194090Y0022581D02*
X0053900Y0022581D01*
X0053900Y0024179D02*
X0192491Y0024179D01*
X0191900Y0025778D02*
X0053900Y0025778D01*
X0053900Y0027376D02*
X0191900Y0027376D01*
X0192045Y0028975D02*
X0053900Y0028975D01*
X0053900Y0030573D02*
X0190823Y0030573D01*
X0166800Y0066800D02*
X0151800Y0066800D01*
X0151800Y0076800D02*
X0166800Y0076800D01*
X0091800Y0076800D02*
X0076800Y0076800D01*
X0081192Y0074600D02*
X0087191Y0074600D01*
X0087476Y0073911D01*
X0088911Y0072476D01*
X0090037Y0072010D01*
X0089689Y0071897D01*
X0088917Y0071504D01*
X0088217Y0070995D01*
X0087605Y0070383D01*
X0087096Y0069683D01*
X0086703Y0068911D01*
X0086435Y0068088D01*
X0086300Y0067233D01*
X0086300Y0067000D01*
X0091600Y0067000D01*
X0091600Y0066600D01*
X0086300Y0066600D01*
X0086300Y0066367D01*
X0086435Y0065512D01*
X0086703Y0064689D01*
X0087096Y0063917D01*
X0087605Y0063217D01*
X0088217Y0062605D01*
X0088917Y0062096D01*
X0089689Y0061703D01*
X0090037Y0061590D01*
X0088911Y0061124D01*
X0087476Y0059689D01*
X0087191Y0059000D01*
X0081192Y0059000D01*
X0080954Y0059576D01*
X0079576Y0060954D01*
X0077970Y0061619D01*
X0078041Y0061630D01*
X0078834Y0061888D01*
X0079578Y0062267D01*
X0080253Y0062757D01*
X0080843Y0063347D01*
X0081333Y0064022D01*
X0081712Y0064766D01*
X0081969Y0065559D01*
X0082100Y0066383D01*
X0082100Y0066600D01*
X0077000Y0066600D01*
X0077000Y0067000D01*
X0082100Y0067000D01*
X0082100Y0067217D01*
X0081969Y0068041D01*
X0081712Y0068834D01*
X0081333Y0069578D01*
X0080843Y0070253D01*
X0080253Y0070843D01*
X0079578Y0071333D01*
X0078834Y0071712D01*
X0078041Y0071969D01*
X0077970Y0071981D01*
X0079576Y0072646D01*
X0080954Y0074024D01*
X0081192Y0074600D01*
X0080663Y0073733D02*
X0087654Y0073733D01*
X0089737Y0072134D02*
X0078341Y0072134D01*
X0080559Y0070536D02*
X0087758Y0070536D01*
X0086716Y0068937D02*
X0081659Y0068937D01*
X0082081Y0067339D02*
X0086317Y0067339D01*
X0086399Y0065740D02*
X0081998Y0065740D01*
X0081394Y0064142D02*
X0086982Y0064142D01*
X0088302Y0062543D02*
X0079958Y0062543D01*
X0079585Y0060945D02*
X0088732Y0060945D01*
X0087335Y0059346D02*
X0081049Y0059346D01*
X0076800Y0056800D02*
X0091800Y0056800D01*
X0087211Y0054551D02*
X0081172Y0054551D01*
X0079882Y0052952D02*
X0088435Y0052952D01*
X0089467Y0051354D02*
X0078610Y0051354D01*
X0080774Y0049755D02*
X0087543Y0049755D01*
X0091800Y0046800D02*
X0076800Y0046800D01*
X0080291Y0043361D02*
X0088026Y0043361D01*
X0090454Y0041763D02*
X0053900Y0041763D01*
X0053900Y0043361D02*
X0073309Y0043361D01*
X0072259Y0044960D02*
X0053900Y0044960D01*
X0053900Y0046558D02*
X0071900Y0046558D01*
X0072058Y0048157D02*
X0053900Y0048157D01*
X0053900Y0049755D02*
X0072826Y0049755D01*
X0074990Y0051354D02*
X0053900Y0051354D01*
X0053900Y0052952D02*
X0073718Y0052952D01*
X0072428Y0054551D02*
X0053900Y0054551D01*
X0053900Y0056149D02*
X0071900Y0056149D01*
X0071900Y0057748D02*
X0053900Y0057748D01*
X0055151Y0059346D02*
X0072551Y0059346D01*
X0074015Y0060945D02*
X0056749Y0060945D01*
X0058348Y0062543D02*
X0073642Y0062543D01*
X0072206Y0064142D02*
X0059946Y0064142D01*
X0061545Y0065740D02*
X0071602Y0065740D01*
X0071519Y0067339D02*
X0063143Y0067339D01*
X0064742Y0068937D02*
X0071941Y0068937D01*
X0073041Y0070536D02*
X0066340Y0070536D01*
X0067939Y0072134D02*
X0075259Y0072134D01*
X0072937Y0073733D02*
X0069537Y0073733D01*
X0071136Y0075332D02*
X0072105Y0075332D01*
X0076800Y0066800D02*
X0091800Y0066800D01*
X0091800Y0086800D02*
X0076800Y0086800D01*
X0080812Y0089718D02*
X0087506Y0089718D01*
X0089377Y0091317D02*
X0078700Y0091317D01*
X0079845Y0092915D02*
X0088472Y0092915D01*
X0087227Y0094514D02*
X0081157Y0094514D01*
X0076800Y0096800D02*
X0091800Y0096800D01*
X0091800Y0106800D02*
X0076800Y0106800D01*
X0076800Y0116800D02*
X0091800Y0116800D01*
X0051800Y0096112D02*
X0051800Y0096112D01*
X0051800Y0094514D02*
X0051800Y0094514D01*
X0051800Y0092915D02*
X0051800Y0092915D01*
X0051800Y0091800D02*
X0051800Y0086750D01*
X0051800Y0091800D01*
X0051800Y0091800D01*
X0051800Y0091317D02*
X0051800Y0091317D01*
X0051800Y0089718D02*
X0051800Y0089718D01*
X0051800Y0088120D02*
X0051800Y0088120D01*
X0045100Y0088120D02*
X0044696Y0088120D01*
X0048500Y0096112D02*
X0049144Y0096112D01*
X0043000Y0115294D02*
X0041180Y0115294D01*
X0053900Y0040164D02*
X0073235Y0040164D01*
X0072228Y0038566D02*
X0053900Y0038566D01*
X0053900Y0036967D02*
X0071900Y0036967D01*
X0072089Y0035369D02*
X0053900Y0035369D01*
X0053900Y0033770D02*
X0072900Y0033770D01*
X0075169Y0032172D02*
X0053900Y0032172D01*
X0048770Y0020982D02*
X0044830Y0020982D01*
X0046250Y0019384D02*
X0047350Y0019384D01*
X0047196Y0014588D02*
X0046404Y0014588D01*
X0045202Y0012990D02*
X0048398Y0012990D01*
X0038398Y0012990D02*
X0035768Y0012990D01*
X0036846Y0014588D02*
X0037196Y0014588D01*
X0037350Y0019384D02*
X0036656Y0019384D01*
X0035396Y0020982D02*
X0038770Y0020982D01*
X0032000Y0020982D02*
X0031600Y0020982D01*
X0031600Y0019384D02*
X0032000Y0019384D01*
X0032000Y0017785D02*
X0031600Y0017785D01*
X0031600Y0016187D02*
X0032000Y0016187D01*
X0032000Y0014588D02*
X0031600Y0014588D01*
X0031600Y0012990D02*
X0032000Y0012990D01*
X0007638Y0019384D02*
X0004100Y0019384D01*
X0004100Y0017785D02*
X0005624Y0017785D01*
X0004309Y0016187D02*
X0004100Y0016187D01*
X0076800Y0036800D02*
X0091800Y0036800D01*
X0087952Y0040164D02*
X0080365Y0040164D01*
X0080700Y0033770D02*
X0087617Y0033770D01*
X0089647Y0032172D02*
X0078431Y0032172D01*
X0274579Y0230387D02*
X0274700Y0230387D01*
X0274814Y0231986D02*
X0276299Y0231986D01*
X0277897Y0233584D02*
X0274686Y0233584D01*
X0274024Y0235183D02*
X0278900Y0235183D01*
X0278900Y0236781D02*
X0272562Y0236781D01*
X0272863Y0238380D02*
X0278900Y0238380D01*
X0278900Y0239978D02*
X0274148Y0239978D01*
X0274811Y0241577D02*
X0278900Y0241577D01*
X0278900Y0243175D02*
X0274814Y0243175D01*
X0274454Y0244774D02*
X0278900Y0244774D01*
X0280162Y0246372D02*
X0273601Y0246372D01*
X0272191Y0247971D02*
X0281760Y0247971D01*
X0282830Y0249569D02*
X0273583Y0249569D01*
X0274238Y0251168D02*
X0282270Y0251168D01*
X0282270Y0252766D02*
X0274238Y0252766D01*
X0273771Y0254365D02*
X0282642Y0254365D01*
X0283389Y0255963D02*
X0272644Y0255963D01*
X0273148Y0257562D02*
X0284987Y0257562D01*
X0290987Y0267153D02*
X0313201Y0267153D01*
X0313201Y0268751D02*
X0292971Y0268751D01*
X0293722Y0270350D02*
X0313201Y0270350D01*
X0313201Y0271948D02*
X0293923Y0271948D01*
X0293665Y0273547D02*
X0313201Y0273547D01*
X0313201Y0275145D02*
X0292832Y0275145D01*
X0313201Y0279941D02*
X0004100Y0279941D01*
X0004100Y0281539D02*
X0313201Y0281539D01*
X0313201Y0283138D02*
X0004100Y0283138D01*
X0004100Y0284737D02*
X0313201Y0284737D01*
X0313201Y0286335D02*
X0004100Y0286335D01*
X0004100Y0287934D02*
X0313201Y0287934D01*
X0313201Y0289532D02*
X0004100Y0289532D01*
X0004100Y0291131D02*
X0313201Y0291131D01*
X0313201Y0292729D02*
X0220012Y0292729D01*
X0219717Y0292434D02*
X0221166Y0293883D01*
X0221950Y0295776D01*
X0221950Y0297824D01*
X0221166Y0299717D01*
X0219717Y0301166D01*
X0217824Y0301950D01*
X0215776Y0301950D01*
X0213883Y0301166D01*
X0212434Y0299717D01*
X0211800Y0298187D01*
X0211166Y0299717D01*
X0209717Y0301166D01*
X0207824Y0301950D01*
X0205776Y0301950D01*
X0203883Y0301166D01*
X0202434Y0299717D01*
X0201800Y0298187D01*
X0201166Y0299717D01*
X0199717Y0301166D01*
X0197824Y0301950D01*
X0195776Y0301950D01*
X0193883Y0301166D01*
X0192434Y0299717D01*
X0191800Y0298187D01*
X0191166Y0299717D01*
X0189717Y0301166D01*
X0187824Y0301950D01*
X0185776Y0301950D01*
X0183883Y0301166D01*
X0182434Y0299717D01*
X0181800Y0298186D01*
X0181166Y0299717D01*
X0179717Y0301166D01*
X0177824Y0301950D01*
X0175776Y0301950D01*
X0173883Y0301166D01*
X0172434Y0299717D01*
X0171800Y0298186D01*
X0171166Y0299717D01*
X0169717Y0301166D01*
X0167824Y0301950D01*
X0165776Y0301950D01*
X0163883Y0301166D01*
X0162434Y0299717D01*
X0161800Y0298186D01*
X0161166Y0299717D01*
X0159717Y0301166D01*
X0157824Y0301950D01*
X0155776Y0301950D01*
X0153883Y0301166D01*
X0152434Y0299717D01*
X0151800Y0298186D01*
X0151166Y0299717D01*
X0149717Y0301166D01*
X0147824Y0301950D01*
X0145776Y0301950D01*
X0143883Y0301166D01*
X0142434Y0299717D01*
X0141800Y0298186D01*
X0141166Y0299717D01*
X0139717Y0301166D01*
X0137824Y0301950D01*
X0135776Y0301950D01*
X0133883Y0301166D01*
X0132434Y0299717D01*
X0131800Y0298186D01*
X0131166Y0299717D01*
X0129717Y0301166D01*
X0127824Y0301950D01*
X0125776Y0301950D01*
X0123883Y0301166D01*
X0122434Y0299717D01*
X0121800Y0298186D01*
X0121166Y0299717D01*
X0119717Y0301166D01*
X0117824Y0301950D01*
X0115776Y0301950D01*
X0113883Y0301166D01*
X0112434Y0299717D01*
X0111800Y0298186D01*
X0111166Y0299717D01*
X0109717Y0301166D01*
X0107824Y0301950D01*
X0105776Y0301950D01*
X0103883Y0301166D01*
X0102434Y0299717D01*
X0101800Y0298186D01*
X0101166Y0299717D01*
X0099717Y0301166D01*
X0097824Y0301950D01*
X0095776Y0301950D01*
X0093883Y0301166D01*
X0092434Y0299717D01*
X0091800Y0298186D01*
X0091166Y0299717D01*
X0089717Y0301166D01*
X0087824Y0301950D01*
X0085776Y0301950D01*
X0083883Y0301166D01*
X0082434Y0299717D01*
X0081800Y0298186D01*
X0081166Y0299717D01*
X0079717Y0301166D01*
X0077824Y0301950D01*
X0075776Y0301950D01*
X0073883Y0301166D01*
X0072434Y0299717D01*
X0071800Y0298186D01*
X0071166Y0299717D01*
X0069717Y0301166D01*
X0067824Y0301950D01*
X0065776Y0301950D01*
X0063883Y0301166D01*
X0062434Y0299717D01*
X0061650Y0297824D01*
X0061650Y0295776D01*
X0062434Y0293883D01*
X0063883Y0292434D01*
X0065776Y0291650D01*
X0067824Y0291650D01*
X0069717Y0292434D01*
X0071166Y0293883D01*
X0071800Y0295413D01*
X0072434Y0293883D01*
X0073883Y0292434D01*
X0075776Y0291650D01*
X0077824Y0291650D01*
X0079717Y0292434D01*
X0081166Y0293883D01*
X0081800Y0295413D01*
X0082434Y0293883D01*
X0083883Y0292434D01*
X0085776Y0291650D01*
X0087824Y0291650D01*
X0089717Y0292434D01*
X0091166Y0293883D01*
X0091800Y0295413D01*
X0092434Y0293883D01*
X0093883Y0292434D01*
X0095776Y0291650D01*
X0097824Y0291650D01*
X0099717Y0292434D01*
X0101166Y0293883D01*
X0101800Y0295413D01*
X0102434Y0293883D01*
X0103883Y0292434D01*
X0105776Y0291650D01*
X0107824Y0291650D01*
X0109717Y0292434D01*
X0111166Y0293883D01*
X0111800Y0295413D01*
X0112434Y0293883D01*
X0113883Y0292434D01*
X0115776Y0291650D01*
X0117824Y0291650D01*
X0119717Y0292434D01*
X0121166Y0293883D01*
X0121800Y0295413D01*
X0122434Y0293883D01*
X0123883Y0292434D01*
X0125776Y0291650D01*
X0127824Y0291650D01*
X0129717Y0292434D01*
X0131166Y0293883D01*
X0131800Y0295413D01*
X0132434Y0293883D01*
X0133883Y0292434D01*
X0135776Y0291650D01*
X0137824Y0291650D01*
X0139717Y0292434D01*
X0141166Y0293883D01*
X0141800Y0295413D01*
X0142434Y0293883D01*
X0143883Y0292434D01*
X0145776Y0291650D01*
X0147824Y0291650D01*
X0149717Y0292434D01*
X0151166Y0293883D01*
X0151800Y0295413D01*
X0152434Y0293883D01*
X0153883Y0292434D01*
X0155776Y0291650D01*
X0157824Y0291650D01*
X0159717Y0292434D01*
X0161166Y0293883D01*
X0161800Y0295413D01*
X0162434Y0293883D01*
X0163883Y0292434D01*
X0165776Y0291650D01*
X0167824Y0291650D01*
X0169717Y0292434D01*
X0171166Y0293883D01*
X0171800Y0295413D01*
X0172434Y0293883D01*
X0173883Y0292434D01*
X0175776Y0291650D01*
X0177824Y0291650D01*
X0179717Y0292434D01*
X0181166Y0293883D01*
X0181800Y0295413D01*
X0182434Y0293883D01*
X0183883Y0292434D01*
X0185776Y0291650D01*
X0187824Y0291650D01*
X0189717Y0292434D01*
X0191166Y0293883D01*
X0191800Y0295413D01*
X0192434Y0293883D01*
X0193883Y0292434D01*
X0195776Y0291650D01*
X0197824Y0291650D01*
X0199717Y0292434D01*
X0201166Y0293883D01*
X0201800Y0295413D01*
X0202434Y0293883D01*
X0203883Y0292434D01*
X0205776Y0291650D01*
X0207824Y0291650D01*
X0209717Y0292434D01*
X0211166Y0293883D01*
X0211800Y0295413D01*
X0212434Y0293883D01*
X0213883Y0292434D01*
X0215776Y0291650D01*
X0217824Y0291650D01*
X0219717Y0292434D01*
X0221350Y0294328D02*
X0313201Y0294328D01*
X0313201Y0295926D02*
X0221950Y0295926D01*
X0221950Y0297525D02*
X0313201Y0297525D01*
X0313201Y0299123D02*
X0221412Y0299123D01*
X0220162Y0300722D02*
X0313201Y0300722D01*
X0313201Y0302320D02*
X0004100Y0302320D01*
X0004100Y0300722D02*
X0063438Y0300722D01*
X0062188Y0299123D02*
X0004100Y0299123D01*
X0004100Y0297525D02*
X0061650Y0297525D01*
X0061650Y0295926D02*
X0004100Y0295926D01*
X0004100Y0294328D02*
X0062250Y0294328D01*
X0063588Y0292729D02*
X0004100Y0292729D01*
X0004100Y0303919D02*
X0008356Y0303919D01*
X0005922Y0305517D02*
X0004100Y0305517D01*
X0004100Y0307116D02*
X0004433Y0307116D01*
X0015244Y0303919D02*
X0303356Y0303919D01*
X0300922Y0305517D02*
X0017678Y0305517D01*
X0019167Y0307116D02*
X0299433Y0307116D01*
X0298770Y0308714D02*
X0019830Y0308714D01*
X0020399Y0310313D02*
X0298201Y0310313D01*
X0298201Y0311911D02*
X0020399Y0311911D01*
X0020399Y0313510D02*
X0019090Y0316671D01*
X0016671Y0319090D01*
X0015776Y0319461D01*
X0302824Y0319461D01*
X0301929Y0319090D01*
X0299510Y0316671D01*
X0298201Y0313510D01*
X0298863Y0315108D02*
X0019737Y0315108D01*
X0019054Y0316707D02*
X0299546Y0316707D01*
X0301144Y0318305D02*
X0017456Y0318305D01*
X0070162Y0300722D02*
X0073438Y0300722D01*
X0072188Y0299123D02*
X0071412Y0299123D01*
X0071350Y0294328D02*
X0072250Y0294328D01*
X0073588Y0292729D02*
X0070012Y0292729D01*
X0080012Y0292729D02*
X0083588Y0292729D01*
X0082250Y0294328D02*
X0081350Y0294328D01*
X0081412Y0299123D02*
X0082188Y0299123D01*
X0083438Y0300722D02*
X0080162Y0300722D01*
X0090162Y0300722D02*
X0093438Y0300722D01*
X0092188Y0299123D02*
X0091412Y0299123D01*
X0091350Y0294328D02*
X0092250Y0294328D01*
X0093588Y0292729D02*
X0090012Y0292729D01*
X0100012Y0292729D02*
X0103588Y0292729D01*
X0102250Y0294328D02*
X0101350Y0294328D01*
X0101412Y0299123D02*
X0102188Y0299123D01*
X0103438Y0300722D02*
X0100162Y0300722D01*
X0110162Y0300722D02*
X0113438Y0300722D01*
X0112188Y0299123D02*
X0111412Y0299123D01*
X0111350Y0294328D02*
X0112250Y0294328D01*
X0113588Y0292729D02*
X0110012Y0292729D01*
X0120012Y0292729D02*
X0123588Y0292729D01*
X0122250Y0294328D02*
X0121350Y0294328D01*
X0121412Y0299123D02*
X0122188Y0299123D01*
X0123438Y0300722D02*
X0120162Y0300722D01*
X0130162Y0300722D02*
X0133438Y0300722D01*
X0132188Y0299123D02*
X0131412Y0299123D01*
X0131350Y0294328D02*
X0132250Y0294328D01*
X0133588Y0292729D02*
X0130012Y0292729D01*
X0140012Y0292729D02*
X0143588Y0292729D01*
X0142250Y0294328D02*
X0141350Y0294328D01*
X0141412Y0299123D02*
X0142188Y0299123D01*
X0143438Y0300722D02*
X0140162Y0300722D01*
X0150162Y0300722D02*
X0153438Y0300722D01*
X0152188Y0299123D02*
X0151412Y0299123D01*
X0151350Y0294328D02*
X0152250Y0294328D01*
X0153588Y0292729D02*
X0150012Y0292729D01*
X0160012Y0292729D02*
X0163588Y0292729D01*
X0162250Y0294328D02*
X0161350Y0294328D01*
X0161412Y0299123D02*
X0162188Y0299123D01*
X0163438Y0300722D02*
X0160162Y0300722D01*
X0170162Y0300722D02*
X0173438Y0300722D01*
X0172188Y0299123D02*
X0171412Y0299123D01*
X0171350Y0294328D02*
X0172250Y0294328D01*
X0173588Y0292729D02*
X0170012Y0292729D01*
X0180012Y0292729D02*
X0183588Y0292729D01*
X0182250Y0294328D02*
X0181350Y0294328D01*
X0181412Y0299123D02*
X0182188Y0299123D01*
X0183438Y0300722D02*
X0180162Y0300722D01*
X0190162Y0300722D02*
X0193438Y0300722D01*
X0192188Y0299123D02*
X0191412Y0299123D01*
X0191350Y0294328D02*
X0192250Y0294328D01*
X0193588Y0292729D02*
X0190012Y0292729D01*
X0200012Y0292729D02*
X0203588Y0292729D01*
X0202250Y0294328D02*
X0201350Y0294328D01*
X0201412Y0299123D02*
X0202188Y0299123D01*
X0203438Y0300722D02*
X0200162Y0300722D01*
X0210162Y0300722D02*
X0213438Y0300722D01*
X0212188Y0299123D02*
X0211412Y0299123D01*
X0211350Y0294328D02*
X0212250Y0294328D01*
X0213588Y0292729D02*
X0210012Y0292729D01*
X0285536Y0246372D02*
X0286000Y0246372D01*
X0291826Y0236781D02*
X0313201Y0236781D01*
X0313201Y0235183D02*
X0293248Y0235183D01*
X0293910Y0233584D02*
X0313201Y0233584D01*
X0313201Y0231986D02*
X0293923Y0231986D01*
X0293477Y0230387D02*
X0313201Y0230387D01*
X0313201Y0228789D02*
X0292379Y0228789D01*
X0310244Y0303919D02*
X0313201Y0303919D01*
X0313201Y0305517D02*
X0312678Y0305517D01*
D28*
X0268985Y0272272D02*
X0268800Y0271800D01*
X0217200Y0220200D01*
X0217200Y0207000D01*
X0216800Y0206800D01*
X0221400Y0172200D02*
X0202200Y0172200D01*
X0201800Y0171800D01*
X0211800Y0162000D02*
X0211800Y0161800D01*
X0211800Y0161400D01*
X0216000Y0157200D01*
X0222600Y0157200D01*
X0232800Y0147000D01*
X0256800Y0147000D01*
X0261600Y0151800D01*
X0261800Y0151800D01*
X0256800Y0147000D02*
X0256800Y0136800D01*
X0271800Y0141600D02*
X0271800Y0141800D01*
X0271800Y0141600D02*
X0280200Y0133200D01*
X0285000Y0133200D01*
X0285107Y0132706D01*
X0285000Y0125400D02*
X0277800Y0125400D01*
X0271800Y0131400D01*
X0271800Y0131800D01*
X0271800Y0121800D02*
X0273600Y0120000D01*
X0267000Y0113400D01*
X0267000Y0099600D01*
X0260400Y0093000D01*
X0255600Y0093000D01*
X0242400Y0079800D01*
X0242400Y0037200D01*
X0237000Y0031800D01*
X0237000Y0027000D01*
X0236800Y0026800D01*
X0232200Y0028800D02*
X0232200Y0024600D01*
X0234600Y0022200D01*
X0252600Y0022200D01*
X0256800Y0026400D01*
X0256800Y0026800D01*
X0257400Y0021000D02*
X0205800Y0021000D01*
X0201600Y0025200D01*
X0201600Y0037200D01*
X0174000Y0064800D01*
X0174000Y0129600D01*
X0184800Y0140400D01*
X0198000Y0140400D01*
X0198493Y0140580D01*
X0198600Y0141000D01*
X0201000Y0141000D01*
X0211800Y0151800D01*
X0213600Y0146400D02*
X0210000Y0146400D01*
X0200400Y0136800D01*
X0196800Y0136800D01*
X0188400Y0128400D01*
X0176400Y0128400D01*
X0172800Y0130200D02*
X0172800Y0051000D01*
X0196800Y0027000D01*
X0196800Y0026800D01*
X0196800Y0026400D01*
X0203400Y0019800D01*
X0277200Y0019800D01*
X0285600Y0028200D01*
X0286800Y0026800D01*
X0286800Y0027000D01*
X0285600Y0028200D01*
X0282600Y0031200D01*
X0282600Y0048600D01*
X0286800Y0052800D01*
X0286800Y0056400D01*
X0286800Y0056800D01*
X0271800Y0071800D02*
X0271800Y0072000D01*
X0277200Y0077400D01*
X0285000Y0077400D01*
X0285107Y0077587D01*
X0285000Y0085200D02*
X0274800Y0085200D01*
X0271800Y0082200D01*
X0271800Y0081800D01*
X0271800Y0081600D01*
X0267000Y0076800D01*
X0256800Y0076800D01*
X0250800Y0078000D02*
X0256800Y0084000D01*
X0256800Y0086400D01*
X0256800Y0086800D01*
X0250800Y0078000D02*
X0250800Y0054000D01*
X0276600Y0028200D01*
X0276600Y0027000D01*
X0276800Y0026800D01*
X0266800Y0026800D02*
X0266400Y0026400D01*
X0262800Y0026400D01*
X0257400Y0021000D01*
X0241200Y0037800D02*
X0232200Y0028800D01*
X0241200Y0037800D02*
X0241200Y0088800D01*
X0252600Y0100200D01*
X0257400Y0100200D01*
X0262800Y0105600D01*
X0262800Y0108000D01*
X0256800Y0114000D01*
X0256800Y0116400D01*
X0256800Y0116800D01*
X0256800Y0117000D01*
X0240600Y0133200D01*
X0223200Y0133200D01*
X0220800Y0135600D01*
X0220800Y0139200D01*
X0213600Y0146400D01*
X0211800Y0141800D02*
X0211800Y0141600D01*
X0203400Y0133200D01*
X0198600Y0133200D01*
X0198493Y0132706D01*
X0198600Y0125400D02*
X0198493Y0124831D01*
X0198600Y0125400D02*
X0205800Y0125400D01*
X0211800Y0131400D01*
X0211800Y0131800D01*
X0221400Y0132000D02*
X0211800Y0141600D01*
X0211800Y0141800D01*
X0221400Y0132000D02*
X0229200Y0132000D01*
X0254400Y0106800D01*
X0256800Y0106800D01*
X0271800Y0111600D02*
X0271800Y0111800D01*
X0271800Y0111600D02*
X0274200Y0109200D01*
X0285000Y0109200D01*
X0285107Y0109083D01*
X0285600Y0109200D01*
X0291600Y0115200D01*
X0291600Y0171600D01*
X0291800Y0171800D01*
X0281800Y0171800D02*
X0281400Y0171600D01*
X0274800Y0171600D01*
X0265200Y0162000D01*
X0262200Y0162000D01*
X0261800Y0161800D01*
X0271800Y0161800D02*
X0271800Y0162000D01*
X0285000Y0148800D01*
X0285107Y0148454D01*
X0285000Y0141000D02*
X0282600Y0141000D01*
X0271800Y0151800D01*
X0285000Y0141000D02*
X0285107Y0140580D01*
X0285000Y0125400D02*
X0285107Y0124831D01*
X0285000Y0117000D02*
X0276600Y0117000D01*
X0273600Y0120000D01*
X0271800Y0121800D01*
X0285000Y0117000D02*
X0285107Y0116957D01*
X0285000Y0101400D02*
X0271800Y0101400D01*
X0271800Y0101800D01*
X0273000Y0093000D02*
X0271800Y0091800D01*
X0273000Y0093000D02*
X0285000Y0093000D01*
X0285107Y0093335D01*
X0285107Y0085461D02*
X0285000Y0085200D01*
X0285107Y0101209D02*
X0285000Y0101400D01*
X0232800Y0088200D02*
X0232800Y0071400D01*
X0207000Y0045600D01*
X0207000Y0027000D01*
X0206800Y0026800D01*
X0216800Y0026800D02*
X0217200Y0027000D01*
X0217200Y0054000D01*
X0234000Y0070800D01*
X0234000Y0119400D01*
X0226800Y0126600D01*
X0226800Y0126800D01*
X0226800Y0117000D02*
X0216600Y0117000D01*
X0211800Y0121800D01*
X0207000Y0117000D01*
X0198600Y0117000D01*
X0198493Y0116957D01*
X0198600Y0109200D02*
X0198493Y0109083D01*
X0198600Y0109200D02*
X0209400Y0109200D01*
X0211800Y0111600D01*
X0211800Y0111800D01*
X0211800Y0101800D02*
X0211800Y0101400D01*
X0198600Y0101400D01*
X0198493Y0101209D01*
X0198493Y0093335D02*
X0198600Y0093000D01*
X0210600Y0093000D01*
X0211800Y0091800D01*
X0216000Y0086400D02*
X0211800Y0082200D01*
X0211800Y0081800D01*
X0211800Y0082200D01*
X0208800Y0085200D01*
X0198600Y0085200D01*
X0198493Y0085461D01*
X0216000Y0086400D02*
X0226800Y0086400D01*
X0226800Y0086800D01*
X0232800Y0088200D02*
X0226800Y0094200D01*
X0226800Y0096600D01*
X0226800Y0096800D01*
X0226800Y0116800D02*
X0226800Y0117000D01*
X0226800Y0136800D02*
X0226800Y0147000D01*
X0222000Y0151800D01*
X0221800Y0151800D01*
X0211800Y0162000D02*
X0198600Y0148800D01*
X0198493Y0148454D01*
X0198000Y0148200D01*
X0190800Y0148200D01*
X0172800Y0130200D01*
X0171600Y0148800D02*
X0171600Y0091200D01*
X0167400Y0087000D01*
X0166800Y0086800D01*
X0151800Y0076800D02*
X0151200Y0076800D01*
X0146400Y0081600D01*
X0075000Y0081600D01*
X0052200Y0058800D01*
X0052200Y0016800D01*
X0051800Y0016800D01*
X0091800Y0056800D02*
X0092400Y0057000D01*
X0151200Y0057000D01*
X0151800Y0056800D01*
X0151800Y0096800D02*
X0151200Y0097200D01*
X0146400Y0102000D01*
X0075000Y0102000D01*
X0067200Y0109800D01*
X0067200Y0206400D01*
X0066800Y0206800D01*
X0076800Y0206800D02*
X0076800Y0206400D01*
X0076800Y0153600D01*
X0070800Y0147600D01*
X0070800Y0116400D01*
X0075600Y0111600D01*
X0146400Y0111600D01*
X0151200Y0116400D01*
X0151800Y0116800D01*
X0171600Y0148800D02*
X0166800Y0153600D01*
X0166800Y0206400D01*
X0166800Y0206800D01*
X0126800Y0206800D02*
X0126600Y0206400D01*
X0126600Y0161400D01*
X0092400Y0127200D01*
X0091800Y0126800D01*
X0091800Y0136800D02*
X0091800Y0137400D01*
X0116400Y0162000D01*
X0116400Y0206400D01*
X0116800Y0206800D01*
X0106800Y0206800D02*
X0106800Y0206400D01*
X0106800Y0154800D01*
X0093600Y0141600D01*
X0075000Y0141600D01*
X0072000Y0138600D01*
X0072000Y0121200D01*
X0076200Y0117000D01*
X0076800Y0116800D01*
X0051600Y0131400D02*
X0051800Y0131800D01*
X0051600Y0131400D02*
X0046800Y0126600D01*
X0046800Y0117000D01*
X0046800Y0116800D01*
X0046800Y0116400D01*
X0043200Y0112800D01*
X0043200Y0105600D01*
X0046800Y0102000D01*
X0046800Y0072000D01*
X0046800Y0071800D01*
X0087000Y0146800D02*
X0087000Y0147000D01*
X0087000Y0206400D01*
X0086800Y0206800D01*
X0221400Y0172200D02*
X0221800Y0171800D01*
D29*
X0176400Y0128400D03*
D30*
X0205800Y0196800D02*
X0243800Y0196800D01*
X0280800Y0233800D01*
X0280800Y0244324D01*
X0288670Y0252194D01*
X0268985Y0232115D02*
X0236670Y0199800D01*
X0210800Y0199800D01*
X0206800Y0203800D01*
X0206800Y0206800D01*
X0196800Y0205800D02*
X0205800Y0196800D01*
X0196800Y0205800D02*
X0196800Y0206800D01*
M02*
